<svg width="103" height="103" viewBox="0 0 103 103" fill="none" xmlns="http://www.w3.org/2000/svg">
<path fill-rule="evenodd" clip-rule="evenodd" d="M12.875 26.9205C9.14233 34.0114 7.02274 41.7086 7.02274 50.3296C7.02274 58.9116 9.14233 66.6277 12.875 73.7387C13.4628 73.5791 13.5606 73.737 14.0455 73.7387C15.4469 76.6424 17.5677 79.2745 19.8977 81.9318C28.7218 90.4675 39.2066 94.8068 51.5 94.8068C63.7533 94.8068 74.2382 90.4675 83.1023 81.9318C85.4312 79.2745 87.5519 76.6424 88.9546 73.7387C93.7587 66.9811 95.9773 59.1072 95.9773 50.3296C95.9773 38.0173 91.6368 27.5313 83.1023 18.7273C74.2382 10.1716 63.7533 5.85229 51.5 5.85229C39.2066 5.85229 28.7218 10.1716 19.8977 18.7273C17.4098 21.4435 15.1912 24.2323 12.875 26.9205" fill="#00CCBE"/>
<path fill-rule="evenodd" clip-rule="evenodd" d="M16.3864 63.2045H85.4432V19.8977H16.3864V63.2045ZM97.1477 81.8725L97.0888 77.25H64.5122H40.7184H5.85228L6.14676 81.9318L97.1477 81.8725Z" fill="#9C006D"/>
<path fill-rule="evenodd" clip-rule="evenodd" d="M60.6644 69.8389H44.1393L40.299 77.2501H63.8065L60.6644 69.8389Z" fill="#450064"/>
<path fill-rule="evenodd" clip-rule="evenodd" d="M44.1393 69.8388H60.6645L63.8066 77.25H97.1477L85.3358 63.2046H16.7333L5.85228 77.25H40.299L44.1393 69.8388Z" fill="#017C88"/>
<path fill-rule="evenodd" clip-rule="evenodd" d="M19.8977 59.6933H83.1023V22.2388H19.8977V59.6933Z" fill="#FDFDFD"/>
<rect x="25.75" y="50.3296" width="9.36364" height="9.36364" fill="#FB5058"/>
<rect x="39.7955" y="45.6477" width="9.36364" height="14.0455" fill="#F6BC03"/>
<rect x="53.8409" y="36.2842" width="9.36364" height="23.4091" fill="#017C88"/>
<rect x="67.8864" y="30.4319" width="9.36364" height="29.2614" fill="#00CCBE"/>
<path fill-rule="evenodd" clip-rule="evenodd" d="M42.7117 28.4372L42.6476 25.6494L24.0041 25.9777L24.0682 28.7655L42.7117 28.4372Z" fill="#91A7A7"/>
<path fill-rule="evenodd" clip-rule="evenodd" d="M40.8022 38.7345L40.8053 35.9551L24.0043 36.5116L24.0012 39.2911L40.8022 38.7345Z" fill="#91A7A7"/>
<path fill-rule="evenodd" clip-rule="evenodd" d="M36.7771 33.5412L36.6739 30.9294L24.4958 31.0355L24.5992 33.6473L36.7771 33.5412Z" fill="#91A7A7"/>
</svg>
