<?xml version="1.0" encoding="utf-8"?>
<!-- Generator: Adobe Illustrator 25.4.1, SVG Export Plug-In . SVG Version: 6.00 Build 0)  -->
<svg version="1.1" id="Livello_1" xmlns="http://www.w3.org/2000/svg" xmlns:xlink="http://www.w3.org/1999/xlink" x="0px" y="0px"
	 viewBox="0 0 642.1 447.9" style="enable-background:new 0 0 642.1 447.9;" xml:space="preserve">
<style type="text/css">
	.st0{fill:#BDFF9A;}
	.st1{fill:#A7E884;}
	.st2{fill:#B6F296;}
	.st3{fill:#3E3E3E;}
	.st4{fill:#2B2B2B;}
	.st5{fill:#7ED152;}
	.st6{fill:#EFB48D;}
	.st7{fill:#FC6161;}
	.st8{fill:#FCC29B;}
	.st9{fill:#760C0C;}
	.st10{fill:#DDA37C;}
	.st11{fill:#16B3E2;}
	.st12{fill:#2088A7;}
	.st13{fill:#D9D9D9;}
	.st14{opacity:0.1;fill:#CBCBCB;enable-background:new    ;}
	.st15{fill:#1C1C1C;}
	.st16{fill:#69BD43;}
	.st17{fill:#4F952F;}
	.st18{fill:#FFFFFF;}
	.st19{fill:#A5A5A5;}
	.st20{fill:#417C25;}
	.st21{fill:#242424;}
	.st22{fill:#191919;}
	.st23{fill:#D2D2D7;}
	.st24{fill:#EBEBF0;}
	.st25{fill:#417B27;}
	.st26{fill:#604E00;}
	.st27{opacity:0.5;}
	.st28{fill:#82B378;}
	.st29{fill:#CBCBCB;}
	.st30{fill:#67671D;}
	.st31{opacity:0.6;}
</style>
<g id="Raggruppa_6656" transform="translate(-139.348 -119.625)">
	<path id="Tracciato_6057" class="st0" d="M192,562.2c0,0-77.4-81.7-28.1-177.8s115.4-47.7,112.3-159.6s152.2-121.4,201.6-89
		s53.8,53.3,155.9,40.5s149.5,82.3,116,148.4c-39.2,77.2,78.8,84.6-10.8,237.7L192,562.2z"/>
	<g id="cloche" transform="translate(550.038 198.558)">
		<circle id="Ellisse_714" class="st1" cx="94.3" cy="7.2" r="7.2"/>
		<path id="Tracciato_6181" class="st1" d="M94.3,12.5c43.3,0.1,78.9,33.9,81.2,77.1H13.1C15.4,46.4,51.1,12.5,94.3,12.5z"/>
		<path id="Tracciato_6182" class="st2" d="M116,33.9c16.1,0,31.9,4.8,45.3,13.9c-25.4-37-75.9-46.4-112.9-21
			C27.4,41,14.4,64.3,13.1,89.6h25.8C49.9,56.4,81,33.9,116,33.9z"/>
		<path id="Tracciato_6183" class="st2" d="M188.6,89.6c0,4.7-1.4,9.4-4,13.3c-1.6,2.4-4.3,3.8-7.1,3.8H11.2c-2.9,0-5.5-1.4-7.1-3.8
			c-2.6-3.9-4-8.6-4-13.3v0L188.6,89.6L188.6,89.6z"/>
		<path id="Tracciato_6184" class="st1" d="M178.4,89.6c-0.6,1.7-1.4,3.3-2.4,4.8c-1.6,2.4-4.3,3.8-7.1,3.8H2.6
			c-0.3,0-0.7-0.1-1-0.1c0.6,1.7,1.4,3.3,2.4,4.9c1.6,2.4,4.3,3.8,7.1,3.8h166.2c2.9,0,5.5-1.4,7.1-3.8c2.6-3.9,4-8.6,4-13.3v0
			L178.4,89.6L178.4,89.6z"/>
	</g>
	<path id="Tracciato_6064" class="st3" d="M675.2,262.8v250.6c0,4.4-3.2,7.9-7.1,7.9H306.7c-3.9,0-7.1-3.6-7.1-7.9V262.8
		c0-4.4,3.2-7.9,7.1-7.9h361.5C672,254.9,675.2,258.4,675.2,262.8z"/>
	<g id="Raggruppa_6277" transform="translate(299.538 254.877)">
		<path id="Tracciato_6065" class="st4" d="M375.7,7.1V26H0.1V7.1C0.1,3.2,3.2,0,7.1,0c0,0,0,0,0,0h361.5
			C372.5,0,375.7,3.2,375.7,7.1C375.7,7.1,375.7,7.1,375.7,7.1z"/>
		<g id="Raggruppa_6276" transform="translate(11.49 9.703)">
			<path id="Tracciato_6066" class="st5" d="M0.1,3.3C0.1,1.5,1.5,0,3.3,0s3.3,1.5,3.3,3.3S5.2,6.6,3.3,6.6c0,0,0,0,0,0
				C1.5,6.6,0.1,5.1,0.1,3.3C0.1,3.3,0.1,3.3,0.1,3.3z"/>
			<path id="Tracciato_6067" class="st5" d="M13,3.3C13,1.5,14.5,0,16.3,0s3.3,1.5,3.3,3.3s-1.5,3.3-3.3,3.3c0,0,0,0,0,0
				C14.5,6.6,13,5.1,13,3.3C13,3.3,13,3.3,13,3.3z"/>
			<path id="Tracciato_6068" class="st5" d="M26.3,3.3c0-1.8,1.5-3.3,3.3-3.3s3.3,1.5,3.3,3.3c0,1.8-1.5,3.3-3.3,3.3
				C27.8,6.6,26.3,5.1,26.3,3.3C26.3,3.3,26.3,3.3,26.3,3.3z"/>
		</g>
	</g>
	<g id="Raggruppa_6283" transform="translate(363.316 155.147)">
		<g id="Raggruppa_6281" transform="translate(0)">
			<path id="Tracciato_6076" class="st6" d="M46.4,140.6c-0.5,0.5-0.6,1.3-0.3,1.9c0,0,0,0,0,0c0.5,1.3,2,2.7,3.8,4.1
				c0.2,0.2,0.4,0.3,0.6,0.5c0,0,0.1,0.1,0.1,0.1s0.1,0.1,0.1,0.1c1.7,1.5,1,1.9,4,5c3.4,3.5,5.7,3.6,6.4,3.3
				c0.6-0.3-0.6-2.1-1.8-4.2c-0.1-0.1-0.1-0.2-0.2-0.3c-0.2-0.3-0.3-0.6-0.5-0.8c-1.5-2.5-1.1-3.7-0.7-7.5
				c0.3-3.1,4.8-17.1,4.8-17.1l-6.5-1.1c0,0-2,11.2-4.1,12.9c-1.2,0.9-2.4,0.9-3.5,1.6c-0.1,0-0.2,0.1-0.2,0.1
				C47.5,139.6,46.9,140.1,46.4,140.6z"/>
			<path id="Tracciato_6077" class="st7" d="M46.4,140.6c-0.5,0.5-0.6,1.3-0.3,1.9c0,0,0,0,0,0c1,1.6,2.2,3,3.8,4.1
				c0.2,0.2,0.4,0.4,0.6,0.5c0,0,0.1,0.1,0.1,0.1s0.1,0.1,0.1,0.1c1.7,1.5,1,1.9,4,5c3.4,3.5,5.7,3.6,6.4,3.3
				c0.6-0.3-0.6-2.1-1.8-4.2c-2.4-0.9-4.4-2.5-6-4.4c-2-2.5-3.3-5.7-4.6-7.7l-0.4-0.1C47.5,139.6,46.9,140.1,46.4,140.6z"/>
			<path id="Tracciato_6078" class="st8" d="M98.7,136.6c0.4,2,3.3,1.7,6.4,0.9s2.4,0.1,7-0.4s5.9-2.2,6.1-2.9
				c0.1-0.6-2.1-0.8-4.5-1.1c-0.3,0-0.6-0.1-0.9-0.1c-2.7-0.3-4.7-2.1-7.2-3.5c-2.3-1.4-5.8-6.9-5.8-6.9l-6.2,0.5c0,0,3.3,5,4.5,7.1
				c0.6,1.3,0.8,2.8,0.6,4.2C98.5,135.2,98.6,135.9,98.7,136.6z"/>
			<path id="Tracciato_6079" class="st7" d="M105.1,137.5c3.2-0.8,2.4,0.1,7-0.4s5.9-2.2,6.1-2.9c0.1-0.6-2.1-0.8-4.5-1.1l0,0
				c-1.9,1.2-4.2,1.9-6.5,2c-3.1,0.1-6.3-0.8-8.5-0.8c-0.1,0.7-0.1,1.4,0,2.1C99.1,138.6,101.9,138.3,105.1,137.5z"/>
			<path id="Tracciato_6080" class="st4" d="M74.8,96.8L69,112.5l-7.6,20.4c-1.4,0.1-2.7,0-4-0.4c-1.4-0.5-2.7-1.1-3.9-1.9
				c0,0,2.1-21.9,6.1-34.5c0.7-2.6,1.8-5.1,3.4-7.3C69,81.6,74.8,96.8,74.8,96.8z"/>
			<path id="Tracciato_6081" class="st3" d="M68.9,71.9c-3.3-1.1-12,0-21.3,1.7c-2.6,0.5-5.2-0.7-6.6-3l0,0l-23.6-1.8
				c0,0-7.8,17.3-3.5,28.3c0.6,1.7,2.3,2.8,4.1,2.7l0,0c0,0,14.3,0,18.8,0c11.7,0,24.8-8.1,26.5-8.4c2.8-0.6,3.9,5,6.7,10.8
				S96.1,128,96.1,128c1.7,0,3.4-0.1,5.1-0.5c0.8-0.3,1.6-0.7,2.2-1.4C103.3,126.1,77.5,74.7,68.9,71.9z"/>
			<path id="Tracciato_6082" class="st9" d="M38.6,1.4c-1.4-0.8-2.9-1.2-4.5-1.2c-0.7,0-1.5,0-2.2-0.1c-9-1.3-14.4,11.7-14.7,15.7
				c-0.6,7.3-4.4,8.4-9.8,12.9c-10.8,9.1-7.7,19.7-1.7,23.6c3.6,2.4,9.8,0,9.8,0c0.1,0.1,17.1-9.5,25.5-14.1
				C53.5,36.4,43.6,4.4,38.6,1.4z"/>
			<path id="Tracciato_6083" class="st6" d="M33.9,34.2c0,0-4.1,1.4-6.9,0.2c-2.6-1.2-4.6-5.5-4.6-5.5c1.2-0.1,2.5-1.1,3.5-7.9
				l0.5,0.2l8.5,3.1c0,0-0.6,2.7-1,5.4C33.6,31.8,33.4,33.9,33.9,34.2z"/>
			<path id="Tracciato_6084" class="st10" d="M35,24.3c0,0-0.3,1.5-0.8,4.2c-3.8-0.7-6.8-3.6-7.7-7.3L35,24.3z"/>
			<path id="Tracciato_6085" class="st8" d="M36.2,27c0,0-11.7-1.6-10.6-8.8s0.3-12.4,7.8-11.7s8.5,3.7,8.8,6.2S39.3,27.2,36.2,27z"
				/>
			<path id="Tracciato_6086" class="st9" d="M41.8,8.7c0,0-7.5,6.4-12.6,7c-5.1,0.5-7-1.1-7-1.1c2-1.8,3.7-4,4.8-6.5
				c0.5-1.2,1.7-2,2.9-2.1C33.6,5.6,40.5,5.5,41.8,8.7z"/>
			<path id="Tracciato_6087" class="st9" d="M37.1,8.2c1.3,1.2,2.4,2.7,3.3,4.2c0.8,2.4,0.9,5,0.4,7.5c0,0,3.9-7.6,1.7-11.3
				C40.1,4.7,37.1,8.2,37.1,8.2z"/>
			<path id="Tracciato_6088" class="st11" d="M43.7,51.5c-0.4,23.7-0.1,18.7-2.7,21c-0.6,0.5-2.4,0.9-4.7,1
				c-7.3,0.5-20-0.7-20.5-2.1c-1.7-4.6-0.5-6.1-1.9-13.2c-0.1-0.8-0.3-1.6-0.5-2.5c-1.2-4.9-2.3-6.5,1.8-14.4
				c3.7-7.1,7.6-12.9,8-12.6c9.9,5.9,10.7,0.9,10.7,0.9S43.9,39.9,43.7,51.5z"/>
			<path id="Tracciato_6089" class="st3" d="M69,112.5l-7.6,20.4c-1.4,0.1-2.7,0-4-0.4c-1.4-0.5-2.7-1.1-3.9-1.9
				c0,0,2.1-21.9,6.1-34.5L69,112.5z"/>
			<path id="Tracciato_6090" class="st11" d="M33.9,29.6c0,0,10.2,1.7,11.4,6.1s5.1,30.9,5.1,30.9s-2.9,2.8-5.3,0.4
				s-7.5-24.9-7.5-24.9L33.9,29.6z"/>
			<path id="Tracciato_6091" class="st12" d="M36.3,73.4c-7.3,0.5-20-0.7-20.5-2.1c-1.7-4.6-0.5-6.1-1.9-13.2l3.5-9.9
				c0,0-0.6,11,2.7,13.9c3.2,2.9,13.2,5.6,14.8,8C35.6,71.2,36.1,72.3,36.3,73.4z"/>
			<path id="Tracciato_6093" class="st11" d="M23.2,28.7c0,0-9.6,0.6-12.9,5.2C5.6,40.4-3.7,68.3,1.6,72c6,4.2,27.3,1.1,27.3,1.1
				s0.7-3.3-0.3-4.9s-17-4.2-17.7-4.9s9.2-14.4,9.2-16.6S23.2,28.7,23.2,28.7z"/>
			<g id="Raggruppa_6314" transform="translate(27.973 67.703)">
				<path id="Tracciato_6092" class="st8" d="M0.1,1.1c0,0,7.2-1.6,8.3-1s4,2.9,4.3,3.8S10.1,3.3,9.2,3c-1,0-2.1,0.3-3,0.7
					C4.4,4.4,2.5,4.6,0.7,4.2L0.1,1.1z"/>
				<path id="Tracciato_6094" class="st8" d="M8.7,2.1c0.6,0.8,1.3,1.5,2,2.2c0.2,0.1,0.5,0.2,0.8,0.2l-1-1.8L8.7,2.1z"/>
				<path id="Tracciato_6095" class="st8" d="M8.4,0.1l4.4,2.1c-0.2,0.2-0.4,0.3-0.7,0.3c-0.6-0.1-1.3-0.3-1.9-0.5L8.4,0.1z"/>
			</g>
		</g>
		<g id="Raggruppa_6282" transform="translate(27.971 48.043)">
			<path id="Tracciato_6096" class="st13" d="M45.6,24.8L0,24.8v1l45.1,0L45.6,24.8z"/>
			<path id="Tracciato_6097" class="st13" d="M10.7,25.8l34.5,0L55.6,0L21.1,0L10.7,25.8z"/>
			<path id="Tracciato_6098" class="st3" d="M36.5,12.9c0.2-0.6,0-1.3-0.7-1.6c-0.2-0.1-0.3-0.1-0.5-0.1c-1,0.1-1.8,0.7-2.1,1.6
				c-0.2,0.6,0.1,1.3,0.7,1.6c0.2,0.1,0.3,0.1,0.5,0.1C35.3,14.5,36.2,13.8,36.5,12.9z"/>
		</g>
	</g>
	<g id="Raggruppa_4845" transform="translate(346.403 356.832)">
		<ellipse id="Ellisse_430" class="st14" cx="31.9" cy="59.3" rx="31.4" ry="4.5"/>
		<g id="breakfast" transform="translate(0 0)">
			<path id="Tracciato_2854" class="st15" d="M4.8,26.1h18.1v6.5H4.8V26.1z"/>
			<path id="Tracciato_2855" class="st4" d="M33.9,7.9v6.9c0,2-1.6,3.6-3.6,3.6l0,0H25v-3.8h4.8c0.1,0,0.2-0.1,0.2-0.2V8.4
				c0-0.1-0.1-0.2-0.2-0.2H25V4.4h5.3C32.3,4.4,33.9,6,33.9,7.9L33.9,7.9z"/>
			<path id="Tracciato_2856" class="st15" d="M30.3,4.4h-3.8c2,0,3.6,1.6,3.6,3.6v0v6.9c0,2-1.6,3.6-3.6,3.6h3.8
				c2,0,3.6-1.6,3.6-3.6v0l0,0V7.9C33.9,6,32.3,4.4,30.3,4.4C30.3,4.4,30.3,4.4,30.3,4.4z"/>
			<path id="Tracciato_2857" class="st4" d="M23.4,27.5H4.3c-0.8,0-1.5-0.7-1.5-1.5c0,0,0,0,0,0l0,0V0.5C2.8,0.2,3,0,3.3,0h21.2
				C24.7,0,25,0.2,25,0.5V26C24.9,26.8,24.3,27.5,23.4,27.5L23.4,27.5z"/>
			<path id="Tracciato_2858" class="st15" d="M21.1,0v26c0,0.8-0.7,1.5-1.5,1.5c0,0,0,0,0,0h3.8c0.8,0,1.5-0.7,1.5-1.5c0,0,0,0,0,0
				V0.5c0-0.3-0.2-0.5-0.5-0.5H21.1L21.1,0z"/>
			<path id="Tracciato_2859" class="st16" d="M23.5,19.7c0,0-6.4,4-6.7,7.7s5.3,6.8,12.4,4.5C31.3,31.2,25.5,23.5,23.5,19.7z"/>
			<path id="Tracciato_2860" class="st17" d="M21.9,20.8c-0.8,1.2-1.4,2.6-1.6,4c-0.3,3.9,3.7,7.2,9.3,6.6c0.6-1.7-4.3-8.3-6.1-11.8
				C23.5,19.7,22.8,20.1,21.9,20.8z"/>
			<path id="Tracciato_2861" class="st16" d="M31.1,14.3c0,0-5.8,1.1-9.3,4.8c-0.3,0.3-0.3,0.7-0.2,1c0.8,2.1,4,9.3,7.6,12.2
				c1.7,0.9,3.7,0.6,5.1-0.6C34.7,31.3,32.8,24.1,31.1,14.3z"/>
			<path id="Tracciato_2862" class="st17" d="M34.3,31.7c0.4-0.3-1.6-7.6-3.2-17.4c-1.3,0.3-2.7,0.7-3.9,1.3
				c-0.3,0.3-0.6,0.5-0.9,0.8c-0.2,0.3-0.3,0.7-0.2,1c0.5,2.5,5.1,15.5,7.4,14.9C33.8,32.1,34.1,31.9,34.3,31.7z"/>
			<path id="Tracciato_2863" class="st16" d="M54.4,19.7c0,0,6.4,4,6.7,7.7s-5.4,6.8-12.5,4.5C46.5,31.2,52.4,23.5,54.4,19.7z"/>
			<path id="Tracciato_2864" class="st17" d="M61.1,27.4c-0.4-3.7-6.7-7.7-6.7-7.7c-0.3,0.6-0.7,1.3-1.1,2c1.8,1.5,3.8,3.6,4,5.7
				c0.2,2.4-2.2,4.6-5.9,5.1C57.1,33.3,61.4,30.5,61.1,27.4z"/>
			<path id="Tracciato_2865" class="st16" d="M46.8,14.3c0,0,5.8,1.1,9.3,4.8c0.3,0.3,0.3,0.7,0.2,1c-0.8,2.1-4,9.3-7.6,12.2
				c-1.7,0.9-3.7,0.6-5.1-0.6C43.2,31.3,45.1,24.1,46.8,14.3z"/>
			<path id="Tracciato_2866" class="st17" d="M56.1,19.1c-3.5-3.7-9.3-4.8-9.3-4.8c-0.1,0.4-0.1,0.8-0.2,1.1
				c2.1,0.8,4.1,2.1,5.7,3.7c0.3,0.3,0.3,0.7,0.2,1c-0.8,2.1-4,9.3-7.6,12.2l-0.2,0.1c1.3,0.6,2.8,0.6,4-0.1
				c3.6-2.9,6.8-10.1,7.6-12.2C56.4,19.8,56.4,19.4,56.1,19.1z"/>
			<path id="Tracciato_2867" class="st16" d="M39,11.6c-2.9-0.1-5.9,0.5-8.6,1.6c-0.4,0.2-0.6,0.6-0.5,1c0.3,3,1.7,15.5,3.4,17
				c2,1.6,9.4,1.6,11.4,0c1.7-1.4,3.1-14,3.4-17c0-0.4-0.2-0.8-0.5-1C44.8,12.1,41.9,11.5,39,11.6z"/>
			<path id="Tracciato_2868" class="st17" d="M47.5,13.2c-2.7-1.1-5.6-1.7-8.6-1.6c-0.7,0-1.3,0-1.9,0.1c2.3,0.1,4.5,0.6,6.7,1.5
				c0.4,0.2,0.6,0.6,0.5,1c-0.3,3-1.7,15.5-3.4,17c-1.1,0.7-2.4,1.1-3.8,1.1c2.9,0.3,6.3-0.1,7.6-1.1c1.7-1.4,3.1-14,3.4-17
				C48.1,13.8,47.9,13.4,47.5,13.2z"/>
			<path id="Tracciato_2869" class="st18" d="M57.3,38.7H6.1c-1.3,0-2.3-1-2.3-2.3c0,0,0,0,0,0l0,0v-3.1h55.8v3.1
				C59.6,37.7,58.6,38.7,57.3,38.7C57.3,38.7,57.3,38.7,57.3,38.7z"/>
			<path id="Tracciato_2870" class="st13" d="M61.4,35.1H2c-1.1,0-1.9-0.9-1.9-1.9c0-1.1,0.9-1.9,1.9-1.9h59.5
				c1.1,0,1.9,0.9,1.9,1.9C63.3,34.3,62.5,35.1,61.4,35.1L61.4,35.1z"/>
			<path id="Tracciato_2871" class="st19" d="M61.4,31.3h-3.8c1.1,0,1.9,0.9,1.9,1.9c0,1.1-0.9,1.9-1.9,1.9h3.8
				c1.1,0,1.9-0.9,1.9-1.9C63.3,32.2,62.5,31.3,61.4,31.3z"/>
		</g>
	</g>
	<g id="Raggruppa_4847" transform="translate(459.441 349.196)">
		<ellipse id="Ellisse_430-2" class="st14" cx="29.8" cy="67.2" rx="29.8" ry="4.3"/>
		<g id="Raggruppa_3286" transform="translate(2.958 0)">
			<g id="pear" transform="translate(0)">
				<path id="Tracciato_3994" class="st18" d="M24.9,11l3,4l-0.2-4.3c-0.2-3,1-6.3,2.6-9.2L26.5,0C24.9,3.4,24,7.4,24.9,11z"/>
				<path id="Tracciato_3995" class="st16" d="M9.7,34.6c0,9,7.6,16.3,16.9,16.3s16.9-7.3,16.9-16.3c0-2.6-1.6-6-3.3-8.9
					c-1.7-2.8-3.1-5.7-4.3-8.7c-0.7-1.8-1.9-3.4-3.6-4.5c-1.7-1.1-3.7-1.8-5.7-1.7c-0.2,0-0.5,0-0.7,0c-3.8,0.2-7.1,2.6-8.5,6.2
					c-1.2,3-2.6,6-4.3,8.7c-0.6,1-1.2,2.1-1.7,3.3C10.4,30.7,9.9,32.6,9.7,34.6z"/>
				<path id="Tracciato_3996" class="st17" d="M26.7,50.8c9.3-0.1,16.8-7.3,16.8-16.3c0-2.6-1.6-6-3.3-8.9c-1.7-2.8-3.1-5.7-4.3-8.7
					c-1.5-3.8-5.2-6.2-9.2-6.2c2.1,0,4,2.6,4.7,6.2c0.6,3,1.3,5.9,2.2,8.7c1,2.9,1.5,5.9,1.7,8.9C35.1,43.5,31.4,50.7,26.7,50.8z"/>
				<path id="Tracciato_3997" class="st20" d="M11.3,28.9c8.9-1.3,15.3-9.2,14.6-18.2c-3.8,0.2-7.1,2.6-8.5,6.2
					c-1.2,3-2.6,6-4.3,8.7C12.4,26.7,11.9,27.8,11.3,28.9z"/>
				<g id="Raggruppa_3279" transform="translate(16.45 41.452)">
					<path id="Tracciato_3998" class="st17" d="M2.7,4.3c0.4,0,0.8-0.3,0.8-0.8c0-0.4-0.3-0.8-0.8-0.8c-0.4,0-0.8,0.3-0.8,0.8
						c0,0,0,0.1,0,0.1C2,4,2.3,4.3,2.7,4.3z"/>
					<path id="Tracciato_3999" class="st17" d="M3.3,1.6C3.7,1.6,4,1.2,4,0.8C4,0.3,3.7,0,3.3,0C2.8,0,2.5,0.3,2.5,0.8
						c0,0,0,0.1,0,0.1C2.6,1.3,2.9,1.5,3.3,1.6z"/>
					<path id="Tracciato_4000" class="st17" d="M0.8,2.3c0.4,0,0.8-0.3,0.8-0.8c0-0.4-0.3-0.8-0.8-0.8c-0.4,0-0.8,0.3-0.8,0.8
						c0,0,0,0.1,0,0.1C0.1,2,0.5,2.3,0.8,2.3z"/>
				</g>
				<g id="Raggruppa_3280" transform="translate(37.199 31.108)">
					<path id="Tracciato_4001" class="st16" d="M3.2,4.3C3.6,4.3,4,4,4,3.6c0-0.4-0.3-0.8-0.8-0.8c-0.4,0-0.8,0.3-0.8,0.8v0.1
						C2.5,4,2.8,4.3,3.2,4.3z"/>
					<path id="Tracciato_4002" class="st16" d="M2.9,1.6c0.4,0,0.8-0.3,0.8-0.8C3.7,0.3,3.4,0,2.9,0C2.5,0,2.2,0.3,2.2,0.8
						c0,0.1,0,0.1,0,0.2C2.3,1.3,2.6,1.5,2.9,1.6z"/>
					<path id="Tracciato_4003" class="st16" d="M0.8,2.9c0.4,0,0.8-0.3,0.8-0.8c0-0.4-0.3-0.8-0.8-0.8c-0.4,0-0.8,0.3-0.8,0.8v0.1
						C0.1,2.7,0.4,2.9,0.8,2.9z"/>
				</g>
				<path id="Tracciato_4004" class="st21" d="M17.8,22.8c-5.2,3.6-12,3.9-17.6,0.9C-0.9,14.3,5.8,5.9,15.1,4.8
					c3.5-0.4,6.9,0.3,10,1.9c0,0.2,0,0.4,0.1,0.5C25.7,13.4,22.8,19.3,17.8,22.8z"/>
				<path id="Tracciato_4005" class="st4" d="M25.1,7.3C16.4,8.9,4.6,19.6,2.6,24.7c-0.8-0.3-1.6-0.6-2.4-1.1
					C-0.9,14.4,5.8,5.9,15.1,4.8c3.5-0.4,6.9,0.3,10,1.9C25.1,6.9,25.1,7.1,25.1,7.3z"/>
				<g id="Raggruppa_3282" transform="translate(5.519 5.947)">
					<path id="Tracciato_4006" class="st22" d="M0.8,14.3c0.2,0,0.4-0.1,0.6-0.3c7-7.9,18.4-12.5,18.5-12.5c0.4-0.1,0.6-0.6,0.5-1
						c-0.1-0.4-0.6-0.6-1-0.5l-0.1,0C18.8,0.3,7.5,4.9,0.2,13C0,13.3,0,13.8,0.3,14.1c0,0,0,0,0,0C0.5,14.2,0.6,14.3,0.8,14.3
						L0.8,14.3z"/>
					<path id="Tracciato_4007" class="st22" d="M11.8,10.1c0.3,0,0.6-0.2,0.7-0.5l2.3-5.9c0.2-0.4,0-0.8-0.4-1c0,0,0,0,0,0
						c-0.1,0-0.1,0-0.2-0.1L8.2,2.2C7.8,2.2,7.4,2.6,7.4,3c0,0.4,0.3,0.7,0.7,0.8L13,4.1l-1.9,4.9c-0.2,0.4,0,0.8,0.4,1c0,0,0,0,0,0
						C11.6,10.1,11.7,10.1,11.8,10.1L11.8,10.1z"/>
					<path id="Tracciato_4008" class="st22" d="M6.8,12.1c0.4,0,0.7-0.3,0.8-0.6l0.7-3.7C8.3,7.4,8,6.9,7.6,6.9c0,0,0,0-0.1,0
						L3.6,6.5c-0.4,0-0.8,0.3-0.8,0.7c0,0,0,0,0,0C2.8,7.6,3.1,8,3.5,8l3.1,0.3L6,11.2C6,11.6,6.2,12,6.7,12.1
						C6.7,12.1,6.7,12.1,6.8,12.1L6.8,12.1z"/>
				</g>
			</g>
		</g>
	</g>
	<g id="Raggruppa_4844" transform="translate(568.763 348.312)">
		<ellipse id="Ellisse_430-3" class="st14" cx="30" cy="68" rx="29.5" ry="4.3"/>
		<g id="Raggruppa_2209" transform="translate(0 0)">
			<g id="Raggruppa_2210" transform="translate(0 7.396)">
				<g id="Raggruppa_2208" transform="translate(0 29.305)">
					<path id="Tracciato_2842" class="st18" d="M6.6,3.8c2.7,4.1,6.6,7.3,11.1,9.1c0.4,0.2,0.8,0.2,1.2,0.2h21.5
						c0.4,0,0.8-0.1,1.2-0.2c4.6-1.8,8.4-5,11.1-9.1H6.6z"/>
					<path id="Tracciato_2843" class="st13" d="M13.8,3.8H6.6c2.7,4.1,6.6,7.3,11.1,9.1c0.4,0.2,0.8,0.2,1.2,0.2h7.2
						c-0.4,0-0.8-0.1-1.2-0.2C20.4,11.1,16.5,7.9,13.8,3.8z"/>
					<g id="Raggruppa_2208-2" transform="translate(0 0)">
						<path id="Tracciato_2797" class="st19" d="M57.5,3.9H1.8c-1,0-1.8-0.8-1.8-1.8c0,0,0,0,0,0l0,0V1.8C0,0.8,0.8,0,1.8,0
							c0,0,0,0,0,0h55.7c1,0,1.8,0.8,1.8,1.8c0,0,0,0,0,0l0,0v0.4C59.3,3.1,58.5,3.9,57.5,3.9C57.5,3.9,57.5,3.9,57.5,3.9z"/>
					</g>
					<g id="Raggruppa_2209-2" transform="translate(0 0)">
						<path id="Tracciato_2798" class="st4" d="M5.1,2.2V1.8c0-1,0.8-1.8,1.8-1.8c0,0,0,0,0,0H1.8c-1,0-1.8,0.8-1.8,1.8c0,0,0,0,0,0
							l0,0v0.4c0,1,0.8,1.8,1.8,1.8c0,0,0,0,0,0h5.1C5.9,3.9,5.1,3.1,5.1,2.2L5.1,2.2z"/>
					</g>
				</g>
				<g id="turkey" transform="translate(8.224 0)">
					<path id="Tracciato_2824" class="st17" d="M4.9,15.8v4.9c0,4.8,3.9,8.6,8.6,8.6c0,0,0,0,0,0H34v-4.1c0-7.9-6.4-14.3-14.3-14.3
						H9.6c-0.7,0-1.4,0.1-2,0.4C5.9,12.2,4.9,13.9,4.9,15.8z"/>
					<path id="Tracciato_2825" class="st16" d="M4.9,15.8v4.9c0,4.8,3.9,8.6,8.6,8.6c0,0,0,0,0,0h16.9v-3.6
						c0-7.9-6.4-14.3-14.3-14.3H7.7C6,12.2,4.9,13.9,4.9,15.8z"/>
					<path id="Tracciato_2826" class="st13" d="M45.3,27.3c0,0.8-0.2,1.5-0.5,2.2H34.5c-1.2-2.9,0.1-6.2,2.9-7.4
						c2.9-1.2,6.2,0.1,7.4,2.9c0,0,0,0.1,0,0.1C45.2,25.8,45.3,26.5,45.3,27.3L45.3,27.3z"/>
					<path id="Tracciato_2827" class="st21" d="M34,27.3c0,0.8-0.2,1.5-0.5,2.2H23.1c-1.2-2.9,0.1-6.2,3-7.4c2.9-1.2,6.1,0.1,7.4,3
						C33.8,25.7,34,26.5,34,27.3z"/>
					<path id="Tracciato_2828" class="st13" d="M22.7,27.3c0,0.8-0.2,1.5-0.5,2.2H11.8c-1.2-2.9,0.1-6.2,2.9-7.4s6.2,0.1,7.4,2.9
						c0,0,0,0,0,0.1C22.5,25.7,22.7,26.5,22.7,27.3L22.7,27.3z"/>
					<path id="Tracciato_2829" class="st21" d="M11.4,27.3c0,0.8-0.2,1.5-0.5,2.2H0.5c-1.2-2.9,0.1-6.2,2.9-7.4
						c2.9-1.2,6.2,0.1,7.4,2.9c0,0,0,0.1,0,0.1C11.2,25.8,11.4,26.5,11.4,27.3z"/>
					<path id="Tracciato_2830" class="st18" d="M45.3,27.3c0,0.8-0.2,1.5-0.5,2.2h-6.8c-1.8-1.6-1.9-4.4-0.2-6.2
						c1.6-1.8,4.4-1.9,6.2-0.2C45.2,24.1,45.7,25.7,45.3,27.3z"/>
					<path id="Tracciato_2831" class="st3" d="M34,27.3c0,0.8-0.2,1.5-0.5,2.2h-6.8c-1.2-2.9,0.1-6.2,3-7.4c0.1-0.1,0.3-0.1,0.4-0.2
						C32.5,22.7,34,24.8,34,27.3z"/>
					<path id="Tracciato_2832" class="st18" d="M22.7,27.3c0,0.8-0.2,1.5-0.5,2.2h-6.8c-1.2-2.9,0.1-6.2,3-7.4
						c0.1-0.1,0.3-0.1,0.4-0.2C21.1,22.7,22.7,24.8,22.7,27.3z"/>
					<path id="Tracciato_2833" class="st3" d="M11.4,27.3c0,0.8-0.2,1.5-0.5,2.2H4.1c-1.2-2.9,0.1-6.2,3-7.4C7.3,22,7.4,22,7.5,21.9
						C9.8,22.7,11.4,24.9,11.4,27.3z"/>
					<path id="Tracciato_2838" class="st23" d="M1.3,5.2c0.3,0.4,0.7,0.6,1.2,0.6c0.1,0,0.2,0,0.2,0c0.5,0,1-0.2,1.3-0.6l0,0
						c0.1-0.1,0.2-0.1,0.3,0l0,0l7.4,7.2c0,0,0.1,0.1,0.1,0.1c0.4,0.2,0.8,0.2,1.1-0.1l0.5-0.5c0.3-0.4,0.3-0.9,0-1.3L6.1,3.5
						C6,3.4,6,3.3,6.1,3.2l0,0c0.7-0.7,0.7-1.9,0-2.7c0,0,0,0,0,0c-0.7-0.7-1.9-0.7-2.6,0c0,0-0.1,0.1-0.1,0.1C3,1,2.8,1.4,2.8,1.9
						c0,0.1-0.1,0.2-0.2,0.2c0,0,0,0,0,0C1.6,2.1,0.8,3,0.8,4C0.8,4.5,1,4.9,1.3,5.2z"/>
					<path id="Tracciato_2839" class="st24" d="M1.3,5.2c0.3,0.3,0.7,0.6,1.2,0.6c0.1,0,0.1,0,0.2,0c0.5,0,1-0.2,1.3-0.6l0,0
						c0.1-0.1,0.2-0.1,0.3,0l0,0l7.4,7.2c0,0,0.1,0.1,0.1,0.1c0.3-0.3,0.3-0.9,0-1.2c0,0,0,0,0,0L4.5,4.1C4.4,4,4.4,3.9,4.5,3.8l0,0
						c0.7-0.7,0.7-1.9,0-2.7c0,0,0,0,0,0c0,0-0.1-0.1-0.1-0.1c-0.3-0.2-0.7-0.4-1-0.4C3,1,2.8,1.4,2.8,1.9c0,0.1-0.1,0.2-0.2,0.2
						c0,0,0,0,0,0C1.6,2.1,0.8,3,0.8,4C0.8,4.5,1,4.9,1.3,5.2L1.3,5.2z"/>
					<path id="Tracciato_2840" class="st25" d="M8.6,12.1l0.5,0.5c0.5,0.5,0.8,1.1,0.9,1.7c0.3,2.6,2.7,4.5,5.3,4.2
						c2.6-0.3,4.5-2.7,4.2-5.3c-0.3-2.2-2-3.9-4.1-4.2h0c-0.6-0.1-1.2-0.3-1.6-0.8l-0.7-0.6c-1.3-1.2-3.3-1.1-4.5,0.1
						C7.4,8.9,7.4,10.9,8.6,12.1L8.6,12.1z"/>
					<path id="Tracciato_2841" class="st17" d="M8.6,12.1l0.5,0.5c0.5,0.5,0.8,1.1,0.9,1.7c0.3,2.6,2.6,4.5,5.3,4.2
						c1.9-1.9,1.8-4.9,0-6.8c-0.7-0.7-1.7-1.2-2.7-1.3h0c-0.6-0.1-1.2-0.3-1.6-0.8L10.1,9C9.6,8.4,8.9,8.1,8.2,8.1
						C7.4,9.3,7.5,11,8.6,12.1z"/>
				</g>
			</g>
			<g id="half-moon" transform="translate(42.239 0)">
				<path id="Tracciato_2844" class="st16" d="M15.3,10.5c-0.1,0-0.2,0-0.2,0c-0.2-1.7-1.8-2.9-3.4-2.6c-1.1,0.1-2,0.9-2.5,1.9
					c-1.1,0.1-2,1.1-1.9,2.2c0,0,0,0,0,0c0.1,1.1,1,1.9,2,1.9h6c1,0,1.7-0.8,1.7-1.7C17.1,11.3,16.3,10.5,15.3,10.5L15.3,10.5z"/>
				<g id="Raggruppa_2211" transform="translate(7.202 7.842)">
					<path id="Tracciato_2845" class="st17" d="M1.2,2.2C0.2,2.7-0.2,3.9,0.3,5c0.4,0.7,1.1,1.2,1.9,1.1h4.2v0
						C4,6.1,1.9,4.5,1.2,2.2L1.2,2.2z"/>
					<path id="Tracciato_2846" class="st17" d="M8.1,2.6c-0.1,0-0.2,0-0.2,0C7.7,1,6.2-0.2,4.5,0c0,0,0,0,0,0l-0.3,0
						c1.2,0.3,2.1,1.2,2.3,2.4c0,0.1,0.1,0.2,0.3,0.2l0,0c1,0,1.7,0.8,1.7,1.7c0,1-0.8,1.7-1.7,1.7h1.3c1,0,1.7-0.8,1.8-1.7
						C9.9,3.5,9.1,2.7,8.1,2.6C8.2,2.6,8.2,2.6,8.1,2.6L8.1,2.6z"/>
				</g>
				<path id="Tracciato_2847" class="st18" d="M12.8,13.9c-3,0-5.4-2.4-5.4-5.4c0-3,2.4-5.4,5.4-5.4c0.9,0,1.7,0.2,2.5,0.6
					c0.3,0.1,0.6,0,0.8-0.2c0,0,0,0,0,0c0.1-0.2,0.1-0.5-0.1-0.6C12.8-0.7,7.4-1,3.9,2.2s-3.8,8.5-0.7,12c3.1,3.5,8.5,3.8,12,0.7
					c0,0,0,0,0,0c0.2-0.2,0.4-0.4,0.6-0.6c0.2-0.2,0.2-0.6,0-0.8c-0.2-0.2-0.4-0.2-0.6-0.1C14.5,13.7,13.6,13.9,12.8,13.9z"/>
				<path id="Tracciato_2848" class="st19" d="M1.5,6.1h4c0.6,0,1.2-0.5,1.2-1.2S6.1,3.8,5.5,3.8l0,0c0,0-0.1,0-0.1,0
					C5.3,3,4.7,2.4,4,2.1C2.8,3.2,1.9,4.6,1.5,6.1L1.5,6.1z"/>
				<g id="Raggruppa_2212" transform="translate(4.089 0.001)">
					<ellipse id="Ellisse_436" class="st13" cx="1.5" cy="13.7" rx="1.4" ry="1.4"/>
					<ellipse id="Ellisse_437" class="st13" cx="4.9" cy="1.9" rx="1" ry="1"/>
					<path id="Tracciato_2849" class="st13" d="M7,1.3C7,1.7,7.4,2,7.8,2c0,0,0,0,0,0c0.2,0,0.3-0.1,0.4-0.2c0.3-0.3,0.7-0.3,1-0.1
						c0.5,0.3,0.9,0.7,1.3,1.2c0.1,0.2,0.2,0.4,0.1,0.6c0.2,0.1,0.4,0.2,0.6,0.3c0.3,0.1,0.6,0.1,0.8-0.2c0,0,0,0,0,0
						C12,3.3,12,3,11.8,2.8C10.2,1,7.9,0,5.5,0C5.3,0,5.1,0,4.8,0c0.8,0.1,1.7,0.3,2.4,0.6C7,0.8,6.9,1,7,1.3L7,1.3z"/>
					<path id="Tracciato_2850" class="st13" d="M11.2,13.3c-0.2,0.1-0.4,0.2-0.6,0.3c0.1,0.2,0.1,0.5-0.1,0.6C9,15.8,7,16.8,4.8,17
						c0.2,0,0.4,0,0.7,0c2.4,0,4.7-1,6.3-2.8c0.2-0.2,0.2-0.6-0.1-0.8C11.6,13.3,11.4,13.2,11.2,13.3L11.2,13.3z"/>
					<path id="Tracciato_2851" class="st13" d="M8,13.9c-3-0.4-5.1-3.1-4.7-6.1C3.6,5.4,5.6,3.5,8,3.1c-0.2,0-0.4,0-0.7,0
						C4.4,3.1,2,5.4,2,8.4l0,0c-0.5,0-1,0.4-1,1c0,0.5,0.4,1,0.9,1h0c0.2,0,0.4,0.1,0.5,0.3C3.4,12.9,5.6,14.2,8,13.9L8,13.9z"/>
				</g>
				<path id="Tracciato_2852" class="st16" d="M5.5,2.9c-0.1,0-0.1,0-0.2,0C5.2,1.8,4.1,1,3,1.2C2.3,1.3,1.6,1.8,1.4,2.5
					C0.6,2.5,0,3.2,0.1,4c0,0.7,0.7,1.3,1.4,1.3h4c0.7,0,1.2-0.5,1.2-1.2C6.7,3.5,6.1,2.9,5.5,2.9L5.5,2.9z"/>
				<path id="Tracciato_2853" class="st17" d="M5.5,2.9c-0.1,0-0.1,0-0.2,0C5.2,1.8,4.2,1,3,1.2c-0.1,0-0.3,0.1-0.4,0.1
					C3.3,1.5,3.8,2.1,4,2.8c0,0.1,0.1,0.1,0.2,0.1l0,0c0.6,0,1.2,0.5,1.2,1.2c0,0.6-0.5,1.2-1.2,1.2c0,0,0,0,0,0h1.3
					c0.7,0,1.2-0.5,1.2-1.2c0,0,0,0,0,0v0C6.6,3.4,6.1,2.9,5.5,2.9z"/>
			</g>
		</g>
	</g>
	<path id="Tracciato_6185" class="st19" d="M393.8,442.6h-30.7c-1.1,0-1.9-0.9-1.9-1.9l0,0c0-1.1,0.9-1.9,1.9-1.9h30.7
		c1.1,0,1.9,0.9,1.9,1.9l0,0C395.7,441.8,394.8,442.6,393.8,442.6C393.8,442.6,393.8,442.6,393.8,442.6z"/>
	<path id="Tracciato_6186" class="st19" d="M505.1,442.6h-30.7c-1.1,0-1.9-0.9-1.9-1.9l0,0c0-1.1,0.9-1.9,1.9-1.9h30.7
		c1.1,0,1.9,0.9,1.9,1.9l0,0C507,441.8,506.1,442.6,505.1,442.6C505.1,442.6,505.1,442.6,505.1,442.6z"/>
	<path id="Tracciato_6187" class="st19" d="M614.2,442.6h-30.7c-1.1,0-1.9-0.9-1.9-1.9l0,0c0-1.1,0.9-1.9,1.9-1.9h30.7
		c1.1,0,1.9,0.9,1.9,1.9l0,0C616.2,441.8,615.3,442.6,614.2,442.6C614.2,442.6,614.2,442.6,614.2,442.6z"/>
	<path id="Rettangolo_4176" class="st19" d="M351.1,430.6h54.1c1.1,0,1.9,0.9,1.9,1.9l0,0c0,1.1-0.9,1.9-1.9,1.9h-54.1
		c-1.1,0-1.9-0.9-1.9-1.9l0,0C349.1,431.5,350,430.6,351.1,430.6z"/>
	<path id="Rettangolo_4177" class="st19" d="M462.3,430.6h54.1c1.1,0,1.9,0.9,1.9,1.9l0,0c0,1.1-0.9,1.9-1.9,1.9h-54.1
		c-1.1,0-1.9-0.9-1.9-1.9l0,0C460.4,431.5,461.3,430.6,462.3,430.6z"/>
	<path id="Rettangolo_4178" class="st19" d="M571.5,430.6h54.1c1.1,0,1.9,0.9,1.9,1.9l0,0c0,1.1-0.9,1.9-1.9,1.9h-54.1
		c-1.1,0-1.9-0.9-1.9-1.9l0,0C569.6,431.5,570.5,430.6,571.5,430.6z"/>
	<path id="Rettangolo_4115" class="st5" d="M448.8,311H526c1.8,0,3.3,1.5,3.3,3.3l0,0c0,1.8-1.5,3.3-3.3,3.3h-77.3
		c-1.8,0-3.3-1.5-3.3-3.3l0,0C445.4,312.5,446.9,311,448.8,311z"/>
	<path id="Rettangolo_4179" class="st5" d="M463.7,323h47.3c1.8,0,3.3,1.5,3.3,3.3l0,0l0,0c0,1.8-1.5,3.3-3.3,3.3l0,0h-47.3
		c-1.8,0-3.3-1.5-3.3-3.3l0,0C460.4,324.5,461.9,323,463.7,323z"/>
	<path id="Rettangolo_4180" class="st5" d="M462.9,468h49c5.5,0,10,4.5,10,10v9.7c0,5.5-4.5,10-10,10h-49c-5.5,0-10-4.5-10-10V478
		C452.9,472.5,457.4,468,462.9,468z"/>
	<g id="Raggruppa_6293" transform="translate(234.311 357.546)">
		<path id="Tracciato_6105" class="st8" d="M70.9,47.8c0,0,0.7-1.6,1.2-2.3s2.4-2.9,2.7-2.4s1.7,3.8,1,4.8s0,2.6-3.4,3.5L70.9,47.8z
			"/>
		<path id="Tracciato_6106" class="st12" d="M32,37.8c0,0,17.9,14.9,24.9,13.6c4.7-1.1,9.3-2.4,13.8-4l1.7,4.3
			c0,0-7.5,10.2-15.3,10.2c-7.4,0-14.7-1.8-21.3-5.3L32,37.8z"/>
		<path id="Tracciato_6107" class="st7" d="M0.6,195.3c0,0,0.5,8.4,2.1,8.5c0.2,0,8.2,0,8.2,0l10.2-0.1c-0.2-1.6-1.4-2.9-3.1-3
			c-3-0.5-8-2.6-9.8-6.6C6.5,190.1,0.6,195.3,0.6,195.3z"/>
		<path id="Tracciato_6108" class="st3" d="M0.1,195.9c1.8,0.6,3.7,0.9,5.5,1c1.7,0,3.5-0.3,5.2-0.7c0,0,0.6-5.7,3.8-18.1
			c1.7-6.5,4.1-14.9,7.5-25.4c9.5-28.8,12.4-45.7,12.6-47.3c0-0.1,0-0.1,0-0.1l0,0L5.5,92.5c0,0,3.6,39.7-1,55
			c-0.7,2.4-1.3,4.8-1.7,7.3C0,171.4,0.1,195.9,0.1,195.9z"/>
		<path id="Tracciato_6109" class="st4" d="M14.5,178.1c1.7-6.5,4.1-14.9,7.5-25.4c9.5-28.8,12.4-45.7,12.6-47.3c0,0,0-0.1,0-0.1
			L5.5,92.5c0,0,3.6,39.7-1,55C3.9,149.6,14.5,178.1,14.5,178.1z"/>
		<path id="Tracciato_6110" class="st7" d="M23.4,195.3c0,0,0.5,8.4,2.1,8.5c0.2,0,8.2,0,8.2,0l10.2-0.1c-0.2-1.6-1.4-2.9-3.1-3
			c-3-0.5-8-2.6-9.8-6.6C29.2,190.1,23.4,195.3,23.4,195.3z"/>
		<path id="Tracciato_6111" class="st3" d="M39.9,93.4c0,19.2-1.4,38.4-4.1,57.4c-4.5,31.6-2.9,45.1-2.9,45.1
			c-1.4,0.5-2.8,0.8-4.3,1.1c-2.2,0.1-4.3-0.1-6.4-0.7c0,0-6.4-31.6-4.5-47.5S8.9,94.4,8.9,94.4L39.9,93.4z"/>
		<path id="Tracciato_6112" class="st6" d="M19.3,33.1l5.7,3.7l5.2-1.5c0.9-1.4,1.2-4,1.2-6.2c0-1.4-0.1-2.8-0.2-4.1l-7.7-3.4
			l-2.9-1.3c0,0,0.2,2.4,0.3,2.7C21.2,26.5,20.7,30,19.3,33.1z"/>
		<path id="Tracciato_6113" class="st11" d="M40.1,100.6c-7.1,6.8-33.9,5.7-35.5-1.8S6.3,34.6,18.4,31c2.5-0.7,15.9,3.6,15.9,3.6
			c1.5,4.1,2.6,8.3,3.5,12.5c0.3,1.4,1,15.8,1.6,29.4c0.3,6.3,0.5,12.5,0.6,16.9C40.3,95.8,40.2,98.2,40.1,100.6z"/>
		<path id="Tracciato_6114" class="st10" d="M21.4,23.2c1.6,2.6,7,4.9,9.9,6c0-1.4-0.1-2.8-0.2-4.1l-7.7-3.4
			C21.8,21.6,20.7,22,21.4,23.2z"/>
		<path id="Tracciato_6115" class="st8" d="M34,24.6c0,0-12.4,3.9-14.6-3.9S14,8.2,21.8,5.5S32,5.2,33.4,7.6
			C34.8,9.9,37.2,23.4,34,24.6z"/>
		<path id="Tracciato_6116" class="st26" d="M32.9,6.8c0,0-0.8,9-2.7,8.6c-1.9-0.4-3.9-1.2-3.6,1.5s-1.8,7.4-4.5,7.4
			c-5.8,0-12-14.8-10.4-17.6C16.2-1.4,39.5-3.1,32.9,6.8z"/>
		<path id="Tracciato_6117" class="st12" d="M31.1,31.2c-0.2-0.1-9.2-4.1-10.3-3.8S18.4,31,18.4,31l15.9,3.6
			C33.6,33.2,32.5,32,31.1,31.2z"/>
		<g id="Raggruppa_6291" transform="translate(31.875 5.702)">
			<path id="Tracciato_6118" class="st20" d="M55.5,69.4L4.8,117.1c-1,0.9-2.2,1.2-2.8,0.7L0.3,116c-0.5-0.6-0.2-1.8,0.8-2.7
				l50.7-47.7c1-0.9,2.2-1.2,2.8-0.7l1.7,1.8C56.9,67.2,56.5,68.4,55.5,69.4z"/>
			<path id="Tracciato_6119" class="st5" d="M27,96.2L4.8,117.1c-1,0.9-2.2,1.2-2.8,0.7l-1.7-1.8c-0.5-0.6-0.2-1.8,0.8-2.7
				l22.3-20.9L27,96.2z"/>
			<path id="Tracciato_6120" class="st20" d="M43.8,51.3c6.4,21,28.6,32.8,49.6,26.4c21-6.4,32.8-28.6,26.4-49.6
				c-1.9-6.3-5.4-12.1-10.2-16.8c-0.2-0.2-0.4-0.4-0.6-0.6c-16-15-41.1-14.3-56.2,1.7C43.2,22.9,39.7,37.7,43.8,51.3L43.8,51.3z
				 M55.2,14.7c13.9-14.7,37-15.4,51.7-1.6c14.7,13.9,15.4,37,1.6,51.7s-37,15.4-51.7,1.6c0,0,0,0,0,0
				C42.1,52.6,41.3,29.4,55.2,14.7C55.2,14.7,55.2,14.7,55.2,14.7L55.2,14.7z"/>
			<g id="Raggruppa_6290" transform="translate(45.209 3.138)" class="st27">
				<path id="Tracciato_6121" class="st5" d="M63.3,61.7c-13.9,14.7-37,15.4-51.7,1.6C-3.2,49.4-3.9,26.2,10,11.5
					C23.8-3.2,47-3.9,61.7,9.9c0,0,0,0,0,0c14.7,13.7,15.5,36.8,1.8,51.5C63.5,61.5,63.4,61.6,63.3,61.7z"/>
			</g>
		</g>
		<path id="Tracciato_6122" class="st12" d="M40.1,93.5C12.2,73.5,14.5,47,14.5,47c10.2,5.8,20.3,18.5,25,29.5
			C39.7,82.8,40,89,40.1,93.5z"/>
		<g id="Raggruppa_6292" transform="translate(13.842 34.653)">
			<path id="Tracciato_6123" class="st8" d="M53.8,49.7c1.4-0.4,2.6-1.1,3.6-2.2c0,0,0.8,0.1-0.1,1.8c-0.1,0.2-0.3,0.5-0.4,0.8
				c0,0.1,0,0.2,0.1,0.2c0,0,0,0,0.1,0c1.1,0.1,2.3-0.4,4.5,0.1c0.3,0.1,0.4,0.8,0.4,1.1c0,0.7-0.2,1.4-0.6,1.9
				c-0.4,0.5-1.3,1-3.5,1.8c-0.8,0.3-3.2,0.1-5.5-0.7l-1.8-0.8l0.6-3.3l0.4,0.1C52.2,50.8,53.1,49.9,53.8,49.7z"/>
			<path id="Tracciato_6124" class="st11" d="M9.3,0c0,0-25.1,4.8,7.4,41.1C21.9,47,50,54.5,50,54.5s2.8-2.4,1.4-4.4
				c0,0-19.3-14-23.6-16.3c-1.9-1-7.4-22.4-10.5-27.6C15.5,3.3,12.6,1,9.3,0z"/>
		</g>
		<path id="Tracciato_6125" class="st8" d="M71.5,48.2c0.4-0.8,0.7-1.6,1-2.4c0.4-1.3,0.9-2.5,1.6-3.7c0.2-0.2,0.7,0.1,0.8,0.8
			c0,0.6-0.2,1.1-0.4,1.6c-0.3,1-0.4,2.1-0.5,3.2C73.6,48.9,71.5,48.2,71.5,48.2z"/>
	</g>
	<g id="Raggruppa_6308" transform="translate(561.961 414.714)">
		<g id="Raggruppa_6301" transform="translate(0 20.513)">
			<g id="Raggruppa_6296" transform="translate(0 43.095)">
				<path id="Tracciato_6127" class="st1" d="M32.7,14.2c0,0,5.9-6.9,0.3-11.3c0,0-4.1-2.4-7.3-2.2c0,0,4.7,7.8,3.2,8.6
					s-4.6-9.1-4.6-9.1s-9.2-0.9-12.2,0.6c0,0,7.9,6.4,6.2,6.8C16.7,8,8.2,1.7,8.2,1.7s-8.6,1.5-8.1,6.7s3.4,6.8,4.7,6.7s8.9-3.1,9-2
					s-4.4,4.5-7.6,4.7c0,0,6.1,6.6,10.1,4.7s4.3-5,6.8-6.1s4.6-1.2,3.6,0s-5.6,2.3-7,4.8s-2.7,4.2,1.4,3.6s10.9-3.7,11.2-7.2
					L32.7,14.2z"/>
				<g id="Raggruppa_6295" transform="translate(4.226 8.508)">
					<path id="Tracciato_6128" class="st28" d="M0.1,0c0,0,23.3-1,28.4,5.7c1,2.5,2.6,4.7,4.7,6.5l0.6,1.5c0,0-4-4.2-5.5-4.5
						C28.2,9.2,30.4,0.9,0.1,0z"/>
					<path id="Tracciato_6129" class="st28" d="M33.1,12.2c3.1,2.5,5.1,6.3,5.4,10.3l-0.9,0.1c0,0-1.6-6.8-4.5-9.5
						S33.1,12.2,33.1,12.2z"/>
				</g>
			</g>
			<g id="Raggruppa_6298" transform="translate(57.62 14.741)">
				<path id="Tracciato_6130" class="st2" d="M6.2,24.4c0,0-9.4-5.2-5-12.4c0,0,3.5-4.4,7.2-5.5c0,0-2,10.6,0,10.9s1.3-12,1.3-12
					s9.9-4.8,13.7-4.4c0,0-6.1,10.4-4.1,10.1s8.8-10.8,8.8-10.8s10.1-1.9,11.8,4.1s-1,9-2.5,9.4s-11.1,0.3-10.9,1.5
					s6.8,3.2,10.4,2.1c0,0-4,9.9-9.2,9.4s-6.9-3.7-10.1-4s-5.6,0.6-4,1.5s7.1,0.3,9.8,2.5s4.8,3.6-0.1,4.6c-4.9,1-13.6,0.4-15.4-3.3
					L6.2,24.4z"/>
				<g id="Raggruppa_6297" transform="translate(1.297 6.271)">
					<path id="Tracciato_6131" class="st1" d="M34.2,0c0,0-26.2,8.6-29.2,18.1c-0.1,3.2-0.9,6.3-2.5,9.1l0,1.9c0,0,2.7-6.4,4.2-7.3
						C6.7,21.9,0.8,13.6,34.2,0z"/>
					<path id="Tracciato_6132" class="st1" d="M2.5,27.2c-2.4,4.1-3,9.1-1.7,13.6l1-0.3c0,0-1-8.2,1.1-12.4S2.5,27.2,2.5,27.2z"/>
				</g>
			</g>
			<g id="Raggruppa_6300" transform="translate(3.433)">
				<path id="Tracciato_6133" class="st0" d="M45.5,31.9c0,0,12.3-7,6.5-16.3c0,0-4.6-5.8-9.6-7.2c0,0,2.7,14,0,14.3
					S40.6,6.9,40.6,6.9s-13-6.2-18.2-5.7c0,0,8.1,13.7,5.5,13.3S16.2,0.4,16.2,0.4S2.8-2.1,0.7,5.8S2.1,17.7,4,18.2
					s14.7,0.3,14.4,1.9S9.5,24.4,4.7,23c0,0,5.3,13,12.2,12.3s9.1-5,13.3-5.3s7.4,0.8,5.3,2c-2.1,1.2-9.4,0.4-12.9,3.4
					s-6.3,4.8,0.2,6.1s18,0.4,20.3-4.5L45.5,31.9z"/>
				<g id="Raggruppa_6299" transform="translate(6.771 8.297)">
					<path id="Tracciato_6134" class="st1" d="M0.1,0c0,0,34.7,11.1,38.7,23.6c0.1,4.2,1.3,8.3,3.3,12l0,2.5c0,0-3.7-8.4-5.6-9.5
						C36.4,28.6,44.1,17.7,0.1,0z"/>
					<path id="Tracciato_6135" class="st1" d="M42,35.6c3.2,5.4,4.1,11.9,2.4,18L43,53.3c0,0,1.3-10.9-1.5-16.3S42,35.6,42,35.6z"/>
				</g>
			</g>
		</g>
		<g id="Raggruppa_6307" transform="translate(10.417 0)">
			<g id="Raggruppa_6306">
				<g id="Raggruppa_6302" transform="translate(0 40.823)">
					<path id="Tracciato_6136" class="st13" d="M137.5,106.5H10.8c-17.7-20.2-13-47.5,10.5-70.6c2.9-2.9,8.6-4.9,14.7-6.4
						c7.9-1.7,16-2.8,24.1-3.3c3.9-3.1,7.5-6.6,10.8-10.3C83.3,0.7,94,2,94,2c12.8-2.5,23.7-3.2,31.7,1.3c0,0,0,0,0,0
						c7.5,4.2,12.5,12.8,14.4,28.7c0.4,3,0.6,6.3,0.7,9.8c0.5,12.9,3,24.4,4.5,34.1l0,0C147.6,90,149.1,100.8,137.5,106.5z"/>
				</g>
				<path id="Tracciato_6137" class="st29" d="M119.4,60.3c-7.7,4.2-8.6,18.1-20.7,21.7s-32.7,3.3-44.4,15.9
					C43,110.2,30.6,79.1,35.9,70.3c7.9-1.7,16-2.8,24.1-3.3c3.9-3.1,7.5-6.6,10.8-10.3C83.3,41.5,94,42.8,94,42.8
					c12.8-2.5,23.7-3.2,31.7,1.3c0,0,0,0,0,0C134.6,53.3,127.1,56.1,119.4,60.3z"/>
				<g id="Raggruppa_6305" transform="translate(14.586)">
					<path id="Tracciato_6138" class="st7" d="M20.9,120.4c0,0,2.2,5.9,1.8,8.1c-0.5,2.2,0.3,6.5-0.6,8.4s-2.5,4.7-0.9,5.4
						c0.6,0.3,7.4-5,7.8-6.6s0.7-6.2,2-8.7c1.1-1.7,0.6-4-1.1-5.1c-0.2-0.1-0.4-0.2-0.6-0.3c-1.9-0.9-4.5-5.9-4.5-5.9L20.9,120.4z"
						/>
					<path id="Tracciato_6139" class="st4" d="M57.2,64.3c0,0-37.1-2.3-41.9,2.6c-5,5.2,3.2,56.2,3.2,56.2s10.1,0.3,10.8-2.4
						c0,0-1.9-24.7-0.3-28.9s0.6-10.2,0.6-10.2s19.7,2.9,25.9,1.4S57.2,64.3,57.2,64.3z"/>
					<path id="Tracciato_6140" class="st8" d="M66.2,37.1c0,0-5.5,12.8-8.1,14.1S45.8,63.6,43.7,63.5s2.1,2.3,2.1,2.3
						S63,57.3,64,56.9c1-0.5,6.1-9,6.9-13.3S66.2,37.1,66.2,37.1z"/>
					<path id="Tracciato_6141" class="st7" d="M14.1,130.2c0,0-2.1,6-3.9,7.3s-3.9,5.1-5.8,6s-4.9,2-4.2,3.5c0.3,0.6,8.9,0.9,10.2,0
						s4.5-4.3,7.1-5.3c2-0.6,3.1-2.7,2.4-4.6c-0.1-0.2-0.1-0.4-0.2-0.6c-0.9-1.9,0.4-7.5,0.4-7.5L14.1,130.2z"/>
					<path id="Tracciato_6142" class="st30" d="M77.4,31.4c-0.8-0.9,19.3,1.3,22,11.6c0,0,15.4-12.2,1.3-22.4
						c-4.9-3.5-5.4-7.3-6.1-10.8S88.9-3.6,80.4,1.4c0,0-3.9,0-6.3,2.1C68.5,8.3,62.5,39,77.4,31.4z"/>
					<path id="Tracciato_6143" class="st3" d="M73.5,66.1c0,0-40.3,4.1-43.9,8.2S12.2,132,12.2,132s4.1,2.3,7.9,0.1
						c0,0,10.7-18.2,15.4-23.9s6.5-23.3,7.3-23.5s26,3.5,34.7-3.2S73.5,66.1,73.5,66.1z"/>
					<path id="Tracciato_6144" class="st11" d="M95.9,29.5C89,26.8,81.5,26,74.1,27.2c-2.7,0.2-5.2,1.8-6.5,4.2
						c-2.5,4.1-3.7,6.4-3.7,6.4s0.2,1.9,3.7,3.5c-0.9,3.4,0.9,9.4-0.8,11.8s-11.9,8.1-12.4,11.3c-0.9,5.9,17.5,16.6,23,15.5
						C93.2,76.4,104,34,95.9,29.5z"/>
					<path id="Tracciato_6145" class="st30" d="M90.5,17.3c1.1-2.1,1.8-4.4,2.1-6.8c0.2-2.2-1.7-10-9.6-8.1
						c-1.6,0.4-3.1,1.1-4.3,2.1c-1.6,1.3-3.9,4.1-0.4,10.8l0.9,2.3L90.5,17.3z"/>
					<g id="Raggruppa_6303" transform="translate(71.998 5.475)">
						<path id="Tracciato_6146" class="st6" d="M7.7,24.5c-0.8,0.8-0.5,3.6,3.3,3.4c2.5-0.1,7.7-3.2,7.2-5.3c-0.2-1-2.1-3.6-2.6-9.5
							l-0.4,0.1l-7.5,2.1c0,0,0.4,2.4,0.5,4.6C8.3,21.9,8,24.1,7.7,24.5z"/>
						<path id="Tracciato_6147" class="st10" d="M7.6,15.4c0,0,0.4,2.4,0.5,4.6c4.2-0.5,6.2-4.5,6.9-6.7L7.6,15.4z"/>
						<path id="Tracciato_6148" class="st8" d="M7.5,18.8c0,0,9.8-2.5,8.2-8.5S14.2-0.2,7.8,1.1S0.9,5.1,1,7.2
							C1,9.4,4.9,19.3,7.5,18.8z"/>
						<path id="Tracciato_6149" class="st30" d="M3.4,2.2c0,0,3.3,6.3,9.5,6.9c3.6,0.4,4.6,2.8,4.6,2.8c-0.6-3.8-1.6-7.5-2.9-11
							C14.6,0.9,4.5-1.8,3.4,2.2z"/>
						<path id="Tracciato_6150" class="st30" d="M4.5,3c-1.1,1.1-2,2.4-2.8,3.7c-1,2.3,0.9,7.1,1.7,8.1c0,0-4.6-7.7-3-11.1
							C2,0.2,4.5,3,4.5,3z"/>
					</g>
					<path id="Tracciato_6151" class="st8" d="M46.6,64.9c0,0-2,2.1-2.2,2.2c-1.3,0.6-2.9,0.3-3.7,0.5s-0.7-0.3-0.1-0.7
						s2-0.2,1.4-0.4s-3.7-0.7-4.9-0.4c-1.1,0.4-2.4,0.3-3.5-0.3c-0.1-0.2,4.3-2.3,5.6-2.3s4.9-0.1,4.9-0.1L46.6,64.9z"/>
					<path id="Tracciato_6152" class="st8" d="M99.2,33.3c0,0,12.2,27.5,8.8,31.5c-3.4,4-26.8-0.9-26.8-0.9l0.7-2.5
						c0,0,17.2-1.1,18.4-1.4c1.8-0.5-8.7-19.8-8.7-19.8L99.2,33.3z"/>
					<path id="Tracciato_6153" class="st11" d="M94.7,29.1c0.3,0,3.9,1.2,6.5,6.4c2.6,5.1,3.5,7.5,3.5,7.5s-11.4,8.8-15.9,5.6
						S90.5,28.9,94.7,29.1z"/>
					<path id="Tracciato_6154" class="st8" d="M84,61.3c0,0-2-1.3-2.7-2s-5.4-1.3-5.4-0.8s2.7,1.1,3,1.6s1.9,2.4,3.3,2.4
						C82.9,62.4,83.7,62,84,61.3z"/>
					<g id="Raggruppa_6304" transform="translate(67.559 51.714)">
						<path id="Tracciato_6155" class="st13" d="M11.1,13.7l-5.2-0.7c-0.8-0.1-1.5-0.7-1.8-1.5L1.2,1.2C1,0.5,1.5,0.1,2.2,0.2
							l5.2,0.7C8.3,1,9,1.6,9.3,2.4l2.9,10.2C12.4,13.3,11.9,13.8,11.1,13.7z"/>
						<path id="Tracciato_6156" class="st19" d="M10,13.5l-5.2-0.7C4,12.6,3.3,12.1,3,11.3L0.1,1.1C-0.1,0.4,0.4-0.1,1.2,0l5.2,0.7
							c0.8,0.1,1.5,0.7,1.8,1.5l2.9,10.2C11.3,13.2,10.8,13.6,10,13.5z"/>
						<path id="Tracciato_6157" class="st3" d="M1,1.3C0.9,1,1.1,0.8,1.4,0.9C1.8,0.9,2,1.2,2.2,1.5C2.2,1.8,2.1,2,1.7,1.9
							C1.4,1.9,1.1,1.6,1,1.3z"/>
					</g>
					<path id="Tracciato_6158" class="st8" d="M81.3,63.9c-1.5,0-3,0-4.4-0.2c-0.9-0.2-3.2-3-2.6-3.7c0.4-0.4,2.5,0.4,3.5,0.3
						s3.6-1.5,5.4,1.5C83.4,62.3,81.3,63.9,81.3,63.9z"/>
				</g>
				<path id="Tracciato_6159" class="st13" d="M111.1,70.7c0,0-3.8,3.6-19.8,4.1S54.5,93,54.3,97.9s32.2,12.6,32.7,11.8
					s20.5-17.9,20.5-17.9L111.1,70.7z"/>
				<path id="Tracciato_6160" class="st29" d="M145.4,116.8c-17.8-22.2-54.3,8.1-63.8,7.2c-8.7-0.8,16.9-31.1,48.7-35.6
					c12.9-1.8,9.8-15.1,9.8-15.5c0.4,3,0.6,6.3,0.7,9.8C141.3,95.6,143.9,107,145.4,116.8z"/>
			</g>
		</g>
	</g>
	<path id="Tracciato_6188" class="st19" d="M142,562.4h636.9c1.4,0,2.6,1.1,2.6,2.6c0,0,0,0,0,0l0,0c0,1.4-1.1,2.6-2.6,2.6l0,0H142
		c-1.4,0-2.6-1.1-2.6-2.5s1.1-2.6,2.5-2.6C141.9,562.4,141.9,562.4,142,562.4z"/>
	<g id="mushroom" transform="translate(463.891 188.393)">
		<path id="Tracciato_2451" class="st18" d="M18.7,20.3c0,0-1,7.7,6.3,14.3c2.4,2.1,2.6,5.8,0.4,8.1c-0.6,0.7-1.4,1.2-2.3,1.6
			l-0.2,0.1c-2.5,0.9-5.3-0.1-6.7-2.4c-2.6-4.2-5.4-9.8-3.1-20.7L18.7,20.3z"/>
		<path id="Tracciato_2452" class="st18" d="M42.2,15.6c0,0-1,9.1,7.8,16.8c2.8,2.4,3.2,6.7,0.7,9.6c-0.7,0.8-1.7,1.5-2.7,1.9
			L47.8,44c-3,1.1-6.3,0-8-2.7c-3.2-4.9-6.6-11.4-4.2-24.4L42.2,15.6z"/>
		<path id="Tracciato_2453" class="st19" d="M34.7,24.1c0.1-2.4,0.3-4.8,0.8-7.2l6.7-1.3c-0.1,1.9,0.1,3.9,0.7,5.8
			C40,21.6,37.2,22.6,34.7,24.1z"/>
		<path id="Tracciato_2454" class="st19" d="M12.2,28.1c0.1-2.3,0.3-4.6,0.8-6.9l5.7-1c-0.1,1.9,0.1,3.7,0.6,5.5
			C16.8,26,14.3,26.8,12.2,28.1z"/>
		<path id="Tracciato_2455" class="st16" d="M15,7.2c4.1,0.8,8,2.7,11.3,5.3c2.3,1.9,2.6,5.4,0.6,7.7c-1,1.1-2.4,1.8-3.8,1.9
			c-0.7,0-1.4,0-2.2,0c-4.6-0.3-9.2,1.2-12.8,4.2l0,0c-1.7,1.9-4.6,2.1-6.6,0.4c-1.2-1.1-1.7-2.6-1.5-4.2c0.8-4.7,3-9.1,6.4-12.6
			C8.6,7.5,11.9,6.5,15,7.2z"/>
		<path id="Tracciato_2456" class="st20" d="M21,22.1L21,22.1c-0.2,0-0.4,0-0.7,0l0,0c-0.5,0-1.1,0-1.6,0l0,0c-0.1,0-0.3,0-0.4,0
			s-0.2,0-0.4,0l0,0l-0.2,0c-0.1,0-0.2,0-0.4,0c-1.7-5,0.9-10.6,3.5-13.1c2,0.9,3.8,2,5.5,3.4c0.1,0.1,0.2,0.2,0.3,0.3
			c0,0,0.1,0.1,0.1,0.1c0.1,0.1,0.1,0.1,0.2,0.2c0,0,0.1,0.1,0.1,0.1c0.1,0.1,0.1,0.1,0.2,0.2c0,0,0.1,0.1,0.1,0.1
			c0,0.1,0.1,0.1,0.1,0.2c0,0,0.1,0.1,0.1,0.1c0,0.1,0.1,0.1,0.1,0.2c0,0,0,0.1,0.1,0.1c0,0.1,0.1,0.2,0.1,0.2c0,0,0,0.1,0.1,0.1
			c0,0.1,0.1,0.2,0.1,0.4l0,0c0,0.1,0.1,0.3,0.1,0.4c0.1,0.4,0.1,0.8,0.2,1.2c0,0.2,0,0.5,0,0.7c0,0.3-0.1,0.5-0.1,0.8
			c0,0.1-0.1,0.2-0.1,0.4c-0.1,0.2-0.2,0.5-0.3,0.7c-0.1,0.1-0.1,0.2-0.2,0.3c0,0,0,0.1-0.1,0.1c0,0.1-0.1,0.1-0.1,0.2
			c0,0,0,0.1-0.1,0.1c-0.1,0.2-0.3,0.4-0.4,0.5l-0.1,0.1c-0.1,0.1-0.1,0.1-0.2,0.2l0,0c-0.1,0.1-0.2,0.2-0.3,0.2l-0.1,0.1
			c-0.1,0.1-0.2,0.1-0.2,0.2l-0.1,0c-0.1,0.1-0.2,0.1-0.3,0.2l-0.1,0c-0.1,0-0.2,0.1-0.3,0.1l-0.1,0c-0.1,0.1-0.2,0.1-0.3,0.1
			l-0.1,0c-0.1,0-0.2,0.1-0.3,0.1l-0.1,0c-0.1,0-0.2,0.1-0.4,0.1l0,0c-0.1,0-0.2,0-0.3,0.1l-0.1,0c-0.1,0-0.3,0-0.4,0
			c-0.3,0-0.7,0-1,0S21.3,22.1,21,22.1L21,22.1z"/>
		<path id="Tracciato_2457" class="st16" d="M37.6,0.2c4.9,0.9,9.6,3,13.5,6c2.8,2.2,3.2,6.3,0.9,9.1c-1.1,1.4-2.7,2.2-4.5,2.3
			c-0.8,0.1-1.7,0.1-2.5,0c-5.5-0.3-10.9,1.6-15,5.3l0,0c-2,2.3-5.4,2.6-7.7,0.6c-1.4-1.2-2.1-3.1-1.9-4.9c0.9-5.6,3.4-10.8,7.2-15
			C30,0.8,33.9-0.5,37.6,0.2z"/>
		<path id="Tracciato_2458" class="st17" d="M43.7,5.2c-0.9-0.3-1.8-0.4-2.7-0.2c-0.6,0.1-1,0.7-0.9,1.4c0,0,0,0.1,0,0.1
			c0.2,0.6,0.6,1.1,1.2,1.3c0.6,0.2,1.2,0.2,1.8,0c0.3-0.1,0.6-0.3,0.9-0.5c0.5-0.4,0.6-1.1,0.2-1.6C44.1,5.5,43.9,5.3,43.7,5.2z"/>
		
			<ellipse id="Ellisse_361" transform="matrix(0.9981 -6.202407e-02 6.202407e-02 0.9981 -0.5118 2.873)" class="st17" cx="46" cy="9.7" rx="1.1" ry="1"/>
	</g>
	<g id="capsicum" transform="translate(281.172 295.419)">
		<path id="Tracciato_2480" class="st13" d="M16.8,9.7c-0.1,1.3-0.2,2.5-0.2,3.8l0.2,0.1c1.4-0.3,2.9-0.2,4.3,0.2l0-0.2
			c-0.1-0.7-0.1-1.3-0.2-2c-0.5-5.2-0.8-8.9,5.4-9.4l0-2.2C19.6-0.4,17.4,4.3,16.8,9.7L16.8,9.7z"/>
		<path id="Tracciato_2481" class="st18" d="M16.8,9.7c0.6-5.4,2.8-10,9.5-9.6v0c-5.1,0.6-7,4.8-7.5,9.6c-0.1,1.3-0.2,2.5-0.2,3.8
			l0,0h-0.2c-0.6,0-1.1,0-1.7,0.1l-0.2-0.1C16.6,12.2,16.6,10.9,16.8,9.7z"/>
		<path id="Tracciato_2482" class="st16" d="M23.7,43.2c1.2,1.4,2.2,2.3,2.8,2.3c4.9,0,6.7-6.3,6.7-13.4c0-5.6,4.8-10.4,3.2-15.6
			c-0.7-2.2-2.6-3.8-4.9-4.2c-1.1-0.2-2.2-0.1-3.3,0.4c-1.6,0.7-2.9,1.7-4,3c-0.9-0.9-2-1.5-3.2-1.9c-1.4-0.4-2.8-0.5-4.3-0.2
			c-1.6,0.3-3,1-4.2,2.1c-1.2-1.4-2.7-2.5-4.4-3.2c-0.9-0.3-2-0.4-3-0.2c-2.3,0.4-4.2,2-4.9,4.2c-1.6,5.2,3.2,10,3.2,15.6
			c0,7.1,1.6,13.4,6.7,13.4c0.7,0,1.7-0.8,2.9-2.1c1.5,2.4,3.3,3.8,5.3,3.8C20.4,47.2,22.2,45.7,23.7,43.2z"/>
		<path id="Tracciato_2483" class="st17" d="M22.2,32.2c1.1-6.1,7.1-10.3,6.4-16.2c-0.1-1.1-0.5-2.1-1.2-3c0.3-0.1,0.5-0.3,0.8-0.4
			c1-0.4,2.2-0.6,3.3-0.4c2.3,0.4,4.2,2,4.9,4.2c1.6,5.2-3.2,10-3.2,15.6c0,7.1-1.8,13.4-6.7,13.4c-0.6,0-1.7-0.8-2.8-2.3
			c-1.5,2.4-3.3,4-5.3,4c-1.4-0.1-2.8-0.8-3.7-1.9C18.6,44.4,21.1,38.7,22.2,32.2z"/>
		<path id="Tracciato_2484" class="st20" d="M8.2,12.6c1.7,0.7,3.2,1.7,4.4,3.2c1.1-1.1,2.6-1.8,4.2-2.1l-0.2-0.1
			c0-1.3,0.1-2.5,0.2-3.8C12.5,8.3,9.9,10.5,8.2,12.6z"/>
		<path id="Tracciato_2485" class="st20" d="M20.9,11.7L20.9,11.7c0,0.6,0.1,1.3,0.2,2l0,0.2c1.2,0.4,2.3,1,3.2,1.9
			c1.1-1.3,2.5-2.4,4-3C27.6,10.4,23.1,9.2,20.9,11.7z"/>
		<g id="Raggruppa_5041" transform="translate(29.669 18.456)">
			<g id="Raggruppa_1551" transform="translate(1.494)" class="st31">
				<path id="Tracciato_2486" class="st16" d="M0.6,6.6c0.2,0,0.4-0.1,0.5-0.4c0.2-0.5,0.4-1,0.6-1.6C1.9,4.2,2,3.8,2.2,3.4
					c0.1-0.5,0.3-1,0.4-1.5C2.6,1.5,2.6,1,2.7,0.6C2.7,0.3,2.4,0,2.1,0C1.8,0,1.5,0.2,1.5,0.6c0,0.4-0.1,0.8-0.1,1.2
					C1.3,2.2,1.2,2.7,1.1,3.1C1,3.5,0.8,3.8,0.7,4.3C0.5,4.8,0.3,5.3,0.1,5.8C0,6.1,0.1,6.4,0.4,6.6C0.5,6.6,0.6,6.6,0.6,6.6
					L0.6,6.6z"/>
			</g>
			<g id="Raggruppa_1552" transform="translate(0 8.231)" class="st31">
				<path id="Tracciato_2487" class="st16" d="M0.6,2.4c0.3,0,0.5-0.2,0.6-0.4c0.1-0.4,0.2-0.8,0.4-1.2c0.1-0.3,0-0.6-0.4-0.7
					c-0.3-0.1-0.6,0-0.7,0.4C0.3,0.8,0.2,1.3,0.1,1.6C0,2,0.2,2.3,0.5,2.4C0.5,2.4,0.6,2.4,0.6,2.4L0.6,2.4z"/>
			</g>
		</g>
	</g>
	<g id="euro" transform="translate(480.144 474.574)">
		<path id="Tracciato_6126" class="st3" d="M14.4,15c-0.2-0.5-0.4-0.9-0.6-1.4c-0.1-0.3-0.5-0.5-0.8-0.4c0,0,0,0-0.1,0
			c-0.6,0.1-1.1,0.3-1.7,0.4C10.2,13.9,9,13.9,8,13.6c-1.2-0.4-2.2-1.4-2.5-2.7h3.7c0.3,0,0.5-0.2,0.5-0.5c0,0,0,0,0,0V9.2
			c0-0.3-0.2-0.5-0.5-0.5c0,0,0,0,0,0h-4c0-0.3,0-0.6,0-0.9h4c0.3,0,0.5-0.2,0.5-0.5c0,0,0,0,0,0V6.1c0-0.3-0.2-0.5-0.5-0.5
			c0,0,0,0,0,0H5.6c0,0,0,0,0,0c0.4-1,1.1-1.7,2-2.1c1.1-0.4,2.4-0.5,3.6-0.2c0.6,0.1,1.1,0.3,1.7,0.4c0.3,0.1,0.7,0,0.8-0.4
			c0,0,0,0,0,0c0.2-0.4,0.4-0.9,0.6-1.4c0.2-0.3,0.1-0.8-0.3-0.9c0,0,0,0-0.1,0c-0.1-0.1-0.2-0.1-0.3-0.2c-1.7-0.7-3.5-0.9-5.2-0.6
			C7.2,0.3,6,0.8,5,1.5c-1.2,1-2.2,2.3-2.6,3.9L2.4,5.6H0.6c-0.3,0-0.5,0.2-0.5,0.5c0,0,0,0,0,0v1.2c0,0.3,0.2,0.5,0.5,0.5
			c0,0,0,0,0,0H2v0.9H0.6c-0.3,0-0.5,0.2-0.5,0.5c0,0,0,0,0,0v1.2c0,0.3,0.2,0.5,0.5,0.5c0,0,0,0,0,0h1.7c0.1,0.4,0.2,0.8,0.4,1.3
			c0.8,2,2.4,3.6,4.5,4.3c1.8,0.6,3.7,0.6,5.4,0.1c0.5-0.1,0.9-0.3,1.4-0.5c0.3-0.1,0.5-0.5,0.4-0.8C14.4,15.1,14.4,15.1,14.4,15z"
			/>
	</g>
</g>
</svg>
