<svg width="88" height="88" viewBox="0 0 88 88" fill="none" xmlns="http://www.w3.org/2000/svg">
<path d="M82 44C82 33.5148 78.288 24.5602 70.8639 17.1361C63.4398 9.71204 54.4852 6 44 6C33.5148 6 24.5426 9.71204 17.0833 17.1361C9.69444 24.5602 6 33.5148 6 44C6 54.4852 9.69444 63.4398 17.0833 70.8639C24.5426 78.288 33.5148 82 44 82C54.4852 82 63.4398 78.288 70.8639 70.8639C78.288 63.4398 82 54.4852 82 44Z" fill="#00CCBE"/>
<path d="M35.0277 67.275C28.3629 67.275 23.6656 69.6148 20.936 74.2944C27.5786 79.4315 35.2666 82 43.9999 82C52.7753 82 60.4281 79.4139 66.9583 74.2417C64.2533 69.5972 59.5736 67.275 52.9194 67.275H35.0277Z" fill="#9C006D"/>
<path d="M35.7139 67.3806V76.4056H52.2333V67.3806H35.7139Z" fill="white"/>
<path d="M35.6611 67.5917L44.4222 76.3528L52.2861 67.5389V65.7444H35.6611V67.5917Z" fill="#FF9966"/>
<path d="M52.2861 57.1417C52.2861 54.8194 51.4769 52.8667 49.8584 51.2833C48.2398 49.6296 46.2695 48.8028 43.9472 48.8028C41.6602 48.8028 39.7074 49.6296 38.0889 51.2833C36.4704 52.8667 35.6611 54.8194 35.6611 57.1417V65.7444H52.2861V57.1417Z" fill="#DF7E4E"/>
<path d="M53.1305 28.4833C55.6991 25.9148 56.9833 22.8361 56.9833 19.2472C56.9833 15.6232 55.6991 12.5445 53.1305 10.0111C50.5972 7.4426 47.5361 6.15834 43.9472 6.15834C40.3583 6.15834 37.2796 7.4426 34.7111 10.0111C32.2129 12.5445 30.9639 15.6232 30.9639 19.2472C30.9639 22.8361 32.2129 25.9148 34.7111 28.4833C37.2796 31.0167 40.3583 32.2833 43.9472 32.2833C47.5361 32.2833 50.5972 31.0167 53.1305 28.4833Z" fill="#FA5058"/>
<path d="M62.8945 40.7805C62.0852 39.9713 61.0648 39.5667 59.8334 39.5667H28.1139C26.8824 39.5667 25.8621 39.9713 25.0528 40.7805C24.2084 41.625 23.7861 42.6454 23.7861 43.8416C23.7861 45.0379 24.2084 46.0583 25.0528 46.9028C25.8621 47.7472 26.8824 48.1694 28.1139 48.1694H59.8334C61.0648 48.1694 62.0852 47.7472 62.8945 46.9028C63.7389 46.0583 64.1611 45.0379 64.1611 43.8416C64.1611 42.6454 63.7389 41.625 62.8945 40.7805Z" fill="#FF9966"/>
<path d="M30.4888 49.3833C31.4388 48.0111 31.9138 46.3574 31.9138 44.4222C31.9138 42.4519 31.4388 40.7806 30.4888 39.4083C29.5388 38.0361 28.3777 37.35 27.0055 37.35C25.6684 37.35 24.5073 38.0361 23.5221 39.4083C22.6073 40.7806 22.1499 42.4519 22.1499 44.4222C22.1499 46.3574 22.6073 48.0111 23.5221 49.3833C24.5073 50.7907 25.6684 51.4944 27.0055 51.4944C28.3777 51.4944 29.5388 50.7907 30.4888 49.3833Z" fill="#9C006D"/>
<path d="M64.3194 49.3833C65.3045 48.0111 65.7971 46.3398 65.7971 44.3694C65.7971 42.4343 65.3045 40.763 64.3194 39.3556C63.3694 38.0185 62.2258 37.35 60.8888 37.35C59.5166 37.35 58.3555 38.0185 57.4055 39.3556C56.4555 40.763 55.9805 42.4343 55.9805 44.3694C55.9805 46.3398 56.4555 48.0111 57.4055 49.3833C58.3555 50.7556 59.5166 51.4417 60.8888 51.4417C62.2258 51.4417 63.3694 50.7556 64.3194 49.3833Z" fill="#9C006D"/>
<path d="M58.5137 34.4472C58.5137 30.4361 57.0711 26.988 54.1859 24.1028C51.3711 21.3231 47.9581 19.9333 43.947 19.9333C39.9711 19.9333 36.5581 21.3231 33.7081 24.1028C30.8581 26.988 29.4331 30.4361 29.4331 34.4472V47.325C29.4331 51.3009 30.8581 54.7315 33.7081 57.6167C36.5581 60.4667 39.9711 61.8917 43.947 61.8917C47.9581 61.8917 51.3711 60.4667 54.1859 57.6167C57.0711 54.7315 58.5137 51.3009 58.5137 47.325V34.4472Z" fill="#FF9966"/>
<path d="M60.361 33.6028C60.361 29.0991 58.7601 25.2287 55.5582 21.9917C52.3564 18.7898 48.486 17.1889 43.9471 17.1889C39.4786 17.1889 35.6258 18.7898 32.3888 21.9917C29.1517 25.2287 27.5332 29.0991 27.5332 33.6028L27.6388 39.4611L29.486 39.6722C31.4212 33.3741 34.5351 29.1167 38.8276 26.9C43.4017 33.6204 50.5267 38.0009 60.2026 40.0417L60.361 33.6028Z" fill="#FA5058"/>
<path d="M54.1332 28.5889C56.9854 31.4256 58.4104 34.8561 58.4082 38.8806V46.3222C58.4119 46.7557 58.5702 47.1252 58.8832 47.4306C59.1886 47.7435 59.558 47.9018 59.9915 47.9056C60.425 47.9018 60.7944 47.7435 61.0998 47.4306C61.4128 47.1252 61.5711 46.7557 61.5748 46.3222V38.8806C61.5726 33.9678 59.831 29.7808 56.3498 26.3194C52.9108 22.9767 48.7765 21.3054 43.9471 21.3056C39.0787 21.3054 34.9445 22.9767 31.5443 26.3194V26.3722C28.1012 29.8076 26.3772 33.977 26.3721 38.8806V46.3222C26.3758 46.7557 26.5341 47.1252 26.8471 47.4306C27.1525 47.7435 27.5219 47.9018 27.9554 47.9056C28.3889 47.9018 28.7583 47.7435 29.0637 47.4306C29.3767 47.1252 29.535 46.7557 29.5387 46.3222V38.8806C29.5335 34.8469 30.9409 31.4164 33.761 28.5889C36.5532 25.8446 39.9486 24.4724 43.9471 24.4722C47.9138 24.4724 51.3092 25.8446 54.1332 28.5889Z" fill="#9C006D"/>
<path d="M47.0613 51.4944C47.8705 50.8963 48.2751 50.1926 48.2751 49.3833C48.2751 48.5037 47.8705 47.7824 47.0613 47.2194C46.1816 46.6565 45.1437 46.375 43.9474 46.375C42.7511 46.375 41.7483 46.6565 40.939 47.2194C40.0946 47.7824 39.6724 48.5037 39.6724 49.3833C39.6724 50.1926 40.0946 50.8963 40.939 51.4944C41.7483 52.0222 42.7511 52.2861 43.9474 52.2861C45.1437 52.2861 46.1816 52.0222 47.0613 51.4944Z" fill="#FA5058"/>
<path d="M25.5277 48.0639C25.2148 48.3693 25.0564 48.7387 25.0527 49.1722C25.0613 51.5105 25.8705 53.4809 27.4805 55.0833C29.125 56.7354 31.0954 57.5622 33.3916 57.5639H39.5138C39.9473 57.5602 40.3168 57.4019 40.6222 57.0889C40.9351 56.7835 41.0935 56.4141 41.0972 55.9806C41.0935 55.5471 40.9351 55.1776 40.6222 54.8722C40.3168 54.5593 39.9473 54.4009 39.5138 54.3972H33.3916C31.9581 54.3987 30.7266 53.8886 29.6972 52.8667C28.7033 51.8653 28.2107 50.6338 28.2194 49.1722C28.2157 48.7387 28.0574 48.3693 27.7444 48.0639C27.439 47.7509 27.0696 47.5926 26.6361 47.5889C26.2026 47.5926 25.8331 47.7509 25.5277 48.0639Z" fill="#440063"/>
</svg>
