<svg width="103" height="103" viewBox="0 0 103 103" fill="none" xmlns="http://www.w3.org/2000/svg">
<path fill-rule="evenodd" clip-rule="evenodd" d="M95.9773 51.4706C95.9773 39.2016 91.6425 28.7163 82.9753 20.0161C74.307 11.3534 63.816 7.02271 51.5 7.02271C39.224 7.02271 28.7507 11.3534 20.0835 20.0161C11.3763 28.7163 7.02274 39.2016 7.02274 51.4706C7.02274 63.7384 11.3763 74.2237 20.0835 82.9251C28.7507 91.6254 39.224 95.9772 51.5 95.9772C63.816 95.9772 74.307 91.6254 82.9753 82.9251C91.6425 74.2237 95.9773 63.7384 95.9773 51.4706" fill="#00CCBB"/>
<path fill-rule="evenodd" clip-rule="evenodd" d="M54.2205 33.9734C52.8563 34.3674 51.7855 35.1956 51.0057 36.4581C50.3043 37.7583 50.1489 39.1202 50.5381 40.5399C50.8888 41.9597 51.7071 43.0435 52.993 43.7936C54.2404 44.5023 55.5847 44.6609 57.0261 44.2657L94.434 33.9131C95.8368 33.5191 96.8889 32.6708 97.5903 31.3705C98.3303 30.1483 98.5068 28.8066 98.1164 27.3466C97.7271 25.9268 96.9088 24.8431 95.6615 24.0929C94.3756 23.3842 93.0312 23.2257 91.6284 23.6209L54.2205 33.9734Z" fill="#FE9866"/>
<path fill-rule="evenodd" clip-rule="evenodd" d="M54.1911 43.3524C52.7888 43.7079 51.735 44.5374 51.0344 45.8408C50.2929 47.1051 50.1362 48.4477 50.5654 49.8696C50.9163 51.2915 51.735 52.3769 53.0215 53.1282C54.2695 53.8782 55.5946 54.037 56.9981 53.601L94.4245 43.2327C95.8292 42.8784 96.9017 42.0478 97.6409 40.7455C98.3426 39.4812 98.4993 38.1387 98.1099 36.7156C97.7578 35.2948 96.9403 34.2082 95.6526 33.457C94.3672 32.7472 93.0409 32.5896 91.6772 32.9842L54.1911 43.3524Z" fill="#FE9866"/>
<path fill-rule="evenodd" clip-rule="evenodd" d="M53.6641 53.434C52.2621 53.8282 51.1918 54.6566 50.4511 55.9195C49.75 57.1812 49.5748 58.5233 49.9253 59.9436C50.3155 61.3626 51.1533 62.448 52.4373 63.1983C53.684 63.9475 55.0276 64.1251 56.4682 63.7297L93.8565 53.3737C95.2597 52.9796 96.3101 52.1511 97.0123 50.8894C97.7507 49.5875 97.9272 48.2264 97.5369 46.805C97.1478 45.3847 96.33 44.3006 95.0833 43.5502C93.7993 42.8413 92.4544 42.6827 91.0524 43.078L53.6641 53.434Z" fill="#FE9866"/>
<path fill-rule="evenodd" clip-rule="evenodd" d="M96.9119 56.6098C96.5612 55.1895 95.7429 54.1042 94.457 53.355C93.2097 52.6449 91.8853 52.4875 90.4825 52.8816L53.0752 63.2378C51.6338 63.5928 50.5619 64.4213 49.8605 65.7233C49.1591 67.0252 48.9837 68.3674 49.3344 69.7474C49.7237 71.1677 50.542 72.253 51.7893 73.0022C53.0752 73.7514 54.4195 73.9289 55.8223 73.5348L93.2881 63.1194C94.6511 62.7644 95.7043 61.9359 96.4443 60.6339C97.1843 59.3711 97.3409 58.0301 96.9119 56.6098" fill="#FE9866"/>
<path fill-rule="evenodd" clip-rule="evenodd" d="M55.1724 10.6575C54.5142 12.1473 54.4747 13.656 55.0551 15.1847C58.4226 24.2781 56.7963 30.6092 50.181 34.1757C48.6708 34.9201 47.6656 36.076 47.1629 37.6435C46.6208 39.2122 46.7184 40.7409 47.4531 42.2307C48.1879 43.7194 49.3301 44.7378 50.8775 45.2869C52.3865 45.8361 53.8944 45.7585 55.4045 45.0529C68.7536 38.8194 72.3138 27.4342 66.0826 10.8915C65.5022 9.36278 64.4784 8.26683 63.0077 7.59891C61.4987 6.89453 59.9885 6.83574 58.4806 7.4237C56.9333 8.05046 55.8294 9.12759 55.1724 10.6575" fill="#FE9866"/>
<path d="M19.9199 82.7609L27.7394 80.8829C27.7783 80.8829 27.8171 80.8631 27.856 80.8245C27.9749 80.8245 28.0337 80.8047 28.0337 80.7661H28.2091C28.2479 80.7661 28.308 80.7463 28.3868 80.7077L66.0536 70.487C71.3505 69.0468 75.3726 65.9701 78.1187 61.2592C80.8248 56.4701 81.4534 51.4672 80.0009 46.2494C78.5507 40.9931 75.4302 37.0017 70.6442 34.2766C65.857 31.5515 60.8144 30.909 55.5175 32.3493L17.8507 42.6284C17.8119 42.6284 17.7731 42.6482 17.7342 42.6868H17.3811C17.3422 42.7253 17.3022 42.7452 17.2622 42.7452L7.67013 45.7822C7.29248 47.9603 7.08035 50.1991 7.03296 52.4963C7.26826 64.2474 11.5639 74.3359 19.9199 82.7609Z" fill="#FE9866"/>
<path fill-rule="evenodd" clip-rule="evenodd" d="M36.0674 78.6218L52.8546 74.0685L40.9074 36.2842L25.75 40.3926L36.0674 78.6218Z" fill="#FB5058"/>
<path fill-rule="evenodd" clip-rule="evenodd" d="M47.3012 44.196C43.658 42.123 39.821 41.615 35.7866 42.6708C31.7546 43.8053 28.6789 46.1904 26.5654 49.8273C24.5282 53.4641 24.0594 57.2969 25.1544 61.3244C26.2517 65.3907 28.6213 68.4621 32.2621 70.5339C35.9053 72.6069 39.7623 73.0949 43.8354 72.0004C47.8675 70.8659 50.9232 68.4808 52.9991 64.844C55.0739 61.2071 55.545 57.3743 54.4089 53.3468C53.3116 49.2794 50.9432 46.2291 47.3012 44.196" fill="white"/>
<path fill-rule="evenodd" clip-rule="evenodd" d="M46.5495 43.3069L39.9298 56.0024L34.4612 55.1981L33.9432 58.4139L42.0608 62.0342C44.6304 54.2216 46.6071 48.1518 47.9886 43.8227L46.5495 43.3069Z" fill="#006D68"/>
<path fill-rule="evenodd" clip-rule="evenodd" d="M7.79989 42.6916C7.28099 45.4909 7.02274 48.3883 7.02274 51.385C7.02274 63.7221 11.329 74.2815 20.1766 83.034C21.0542 83.9009 21.9148 84.713 22.7912 85.4604L29.2614 83.3736L18.0225 39.7954L7.79989 42.6916Z" fill="#067F8A"/>
</svg>
